<svg xmlns="http://www.w3.org/2000/svg" xmlns:xlink="http://www.w3.org/1999/xlink" width="500" zoomAndPan="magnify" viewBox="0 0 375 374.999991" height="500" preserveAspectRatio="xMidYMid meet" version="1.0"><defs><clipPath id="f1392b4e05"><path d="M 0 99.375 L 375 99.375 L 375 316.875 L 0 316.875 Z M 0 99.375 " clip-rule="nonzero"/></clipPath><clipPath id="5237feda92"><path d="M 121.265625 0 L 254 0 L 254 225 L 121.265625 225 Z M 121.265625 0 " clip-rule="nonzero"/></clipPath></defs><g clip-path="url(#f1392b4e05)"><path fill="#235959" d="M 374.953125 299.796875 L 361.644531 178.976562 C 361.460938 177.320312 360.679688 175.78125 359.441406 174.660156 C 359.394531 174.613281 358.535156 173.835938 356.96875 172.542969 C 356.832031 171.179688 356.753906 170.738281 356.675781 170.375 C 355.828125 166.421875 353.078125 163.230469 350.855469 161.203125 L 350.464844 153.773438 C 350.410156 152.710938 350.105469 151.671875 349.578125 150.746094 C 347.347656 146.824219 343.703125 144.152344 340.769531 142.507812 L 340.664062 138.050781 C 340.613281 135.863281 339.519531 133.828125 337.71875 132.582031 C 335.941406 131.347656 333.9375 130.597656 331.988281 130.160156 L 331.667969 126.605469 C 331.464844 124.355469 330.167969 122.351562 328.203125 121.242188 C 325.851562 119.921875 323.324219 119.136719 321.070312 118.671875 L 320.632812 112.242188 C 320.476562 109.933594 319.164062 107.859375 317.144531 106.730469 C 316.609375 106.429688 303.738281 99.386719 277.363281 99.382812 C 270.164062 99.382812 262.515625 99.90625 254.632812 100.941406 C 222.554688 105.144531 197.617188 128.25 186.933594 139.828125 C 176.25 128.25 151.3125 105.144531 119.238281 100.941406 C 111.355469 99.90625 103.707031 99.382812 96.503906 99.382812 C 70.125 99.382812 57.257812 106.429688 56.722656 106.730469 C 54.703125 107.859375 53.394531 109.933594 53.234375 112.242188 L 52.796875 118.671875 C 50.546875 119.136719 48.015625 119.921875 45.667969 121.242188 C 43.699219 122.351562 42.402344 124.355469 42.199219 126.605469 L 41.882812 130.160156 C 39.929688 130.597656 37.925781 131.347656 36.148438 132.582031 C 34.351562 133.828125 33.253906 135.863281 33.203125 138.050781 L 33.097656 142.507812 C 30.164062 144.152344 26.519531 146.824219 24.289062 150.746094 C 23.761719 151.671875 23.460938 152.710938 23.402344 153.773438 L 23.011719 161.203125 C 20.789062 163.226562 18.039062 166.421875 17.195312 170.371094 C 17.109375 170.765625 17.027344 171.25 16.867188 172.878906 C 15.5625 173.957031 14.847656 174.597656 14.804688 174.636719 C 13.546875 175.773438 12.75 177.335938 12.578125 179.023438 L 0.09375 299.84375 C 0.0703125 300.078125 0.0585938 300.3125 0.0585938 300.546875 C 0.0585938 307.304688 5.546875 312.800781 12.296875 312.800781 C 12.832031 312.800781 13.375 312.765625 13.90625 312.695312 C 33.527344 310.109375 100.574219 301.679688 139.480469 301.679688 C 146.730469 301.679688 152.5625 301.972656 156.882812 302.546875 C 160.265625 308.023438 168.65625 316.886719 187.527344 316.886719 C 206.398438 316.886719 214.785156 308.023438 218.167969 302.546875 C 222.488281 301.972656 228.324219 301.679688 235.574219 301.679688 C 274.476562 301.679688 341.523438 310.109375 361.144531 312.695312 C 361.679688 312.765625 362.21875 312.800781 362.753906 312.800781 C 369.503906 312.800781 374.996094 307.304688 374.996094 300.546875 C 374.996094 300.296875 374.980469 300.046875 374.953125 299.796875 Z M 25.425781 173.355469 C 25.484375 172.753906 25.535156 172.339844 25.570312 172.167969 C 25.839844 170.925781 26.730469 169.664062 27.722656 168.59375 L 27.515625 171.824219 L 27.3125 174.980469 L 20.527344 280.234375 C 20.496094 280.742188 20.691406 281.242188 21.066406 281.589844 C 21.4375 281.941406 21.945312 282.105469 22.453125 282.042969 C 23.507812 281.910156 124.023438 269.527344 169.996094 282.5625 C 108.195312 279.246094 30.761719 288.304688 17.183594 289.980469 C 19.148438 260.480469 23.617188 194.527344 25.125 176.628906 C 25.246094 175.226562 25.34375 174.128906 25.425781 173.355469 Z M 243.269531 113.402344 C 250.203125 111.152344 257.128906 109.539062 263.917969 108.554688 C 288.734375 106.441406 303.730469 110.574219 309.808594 112.847656 C 310.597656 113.167969 311.382812 113.496094 312.152344 113.839844 L 312.914062 124.976562 C 312.914062 124.980469 312.914062 124.988281 312.914062 124.992188 C 312.917969 125 312.914062 125.003906 312.914062 125.011719 L 315.464844 153.691406 L 315.714844 156.46875 L 322.917969 237.457031 C 316.777344 235.941406 299.613281 232.449219 277.511719 234.242188 C 253.261719 236.207031 218.589844 245.25 188.824219 276.664062 C 188.707031 276.789062 188.585938 276.90625 188.46875 277.035156 L 188.46875 151.140625 C 188.566406 151.019531 188.6875 150.871094 188.824219 150.703125 C 191.457031 147.492188 201.257812 136.105469 215.738281 126.015625 C 224.007812 120.9375 233.339844 116.621094 243.269531 113.402344 Z M 348.710938 176.296875 C 350.195312 193.691406 354.707031 260.289062 356.683594 289.980469 C 354.707031 289.738281 351.375 289.335938 346.933594 288.839844 C 346.125 288.75 345.28125 288.65625 344.402344 288.558594 C 342.203125 288.320312 339.785156 288.0625 337.171875 287.792969 C 331.15625 287.171875 324.101562 286.488281 316.285156 285.8125 C 314.328125 285.644531 312.328125 285.476562 310.285156 285.3125 C 303.125 284.726562 295.441406 284.164062 287.414062 283.667969 C 270.214844 282.597656 251.453125 281.835938 232.972656 281.835938 C 226.820312 281.835938 220.695312 281.921875 214.671875 282.109375 C 212.660156 282.167969 210.664062 282.242188 208.683594 282.328125 C 207.0625 282.398438 205.460938 282.476562 203.863281 282.5625 C 249.828125 269.527344 350.359375 281.910156 351.414062 282.042969 C 351.925781 282.105469 352.429688 281.941406 352.804688 281.589844 C 353.175781 281.242188 353.371094 280.742188 353.339844 280.234375 L 346.535156 174.652344 L 346.332031 171.492188 L 346.144531 168.59375 C 347.136719 169.664062 348.03125 170.925781 348.296875 172.167969 C 348.324219 172.304688 348.363281 172.597656 348.40625 173.011719 C 348.484375 173.726562 348.589844 174.839844 348.710938 176.296875 Z M 329.011719 163.261719 L 328.835938 160.371094 L 327.488281 138.175781 C 328.890625 138.253906 330.714844 138.515625 332.121094 139.207031 L 332.304688 146.957031 C 332.304688 146.972656 332.308594 146.988281 332.308594 147.003906 C 332.308594 147.015625 332.308594 147.023438 332.308594 147.035156 L 333.414062 163.007812 L 333.621094 165.972656 L 340.65625 267.503906 C 334.191406 266.410156 314.058594 263.339844 289.390625 262.800781 C 264.3125 262.253906 229.75 264.300781 201.277344 276.285156 C 228.289062 259.15625 259.898438 254.265625 282.808594 253.339844 C 310.835938 252.203125 332.289062 256.570312 332.5 256.613281 C 333.023438 256.71875 333.566406 256.582031 333.96875 256.230469 C 334.375 255.882812 334.59375 255.363281 334.558594 254.832031 Z M 342.734375 168.960938 L 342.933594 172.054688 L 349.785156 278.394531 C 334.769531 276.613281 246.847656 266.957031 203.269531 279.171875 C 259.488281 255.867188 341.328125 271.089844 342.191406 271.253906 C 342.714844 271.355469 343.253906 271.207031 343.652344 270.855469 C 344.050781 270.5 344.261719 269.984375 344.226562 269.453125 L 337.210938 168.21875 L 337.003906 165.207031 L 335.921875 149.628906 C 337.851562 150.625 340.449219 152.292969 341.929688 154.648438 L 342.460938 164.71875 C 342.460938 164.722656 342.460938 164.722656 342.460938 164.726562 C 342.460938 164.730469 342.460938 164.734375 342.460938 164.738281 Z M 323.960938 136.601562 L 325.285156 158.457031 L 325.457031 161.300781 L 331.007812 252.851562 C 324.789062 251.773438 305.988281 248.976562 282.757812 249.910156 C 257.054688 250.941406 220.597656 256.875 191.320312 279.015625 C 220.300781 248.429688 254.054688 239.605469 277.65625 237.667969 C 304.28125 235.480469 324.148438 241.328125 324.347656 241.386719 C 324.890625 241.550781 325.480469 241.433594 325.921875 241.074219 C 326.363281 240.714844 326.597656 240.160156 326.546875 239.59375 L 319.304688 158.15625 L 319.054688 155.339844 L 316.503906 126.660156 C 318.226562 126.808594 320.878906 127.207031 323.21875 128.308594 Z M 185.042969 150.535156 C 185.042969 150.539062 185.042969 150.539062 185.042969 150.542969 L 185.042969 276.664062 C 155.277344 245.25 120.605469 236.207031 96.355469 234.242188 C 74.253906 232.449219 57.089844 235.941406 50.953125 237.457031 L 58.125 156.789062 L 58.375 154.007812 L 60.953125 125.011719 C 60.953125 125.003906 60.953125 125 60.953125 124.992188 C 60.953125 124.988281 60.957031 124.980469 60.957031 124.976562 L 61.714844 113.839844 C 80.449219 105.421875 105.480469 105.25 130.597656 113.402344 C 154.214844 121.0625 174.460938 134.894531 185.042969 150.535156 Z M 54.785156 155.664062 L 54.535156 158.484375 L 47.320312 239.59375 C 47.269531 240.160156 47.503906 240.714844 47.945312 241.074219 C 48.386719 241.433594 48.976562 241.550781 49.519531 241.386719 C 49.71875 241.328125 69.582031 235.484375 96.210938 237.667969 C 119.816406 239.605469 153.566406 248.429688 182.550781 279.015625 C 153.269531 256.875 116.8125 250.941406 91.109375 249.910156 C 67.875 248.976562 49.078125 251.777344 42.863281 252.851562 L 48.390625 161.628906 L 48.5625 158.789062 L 49.90625 136.601562 L 50.652344 128.308594 C 52.992188 127.207031 55.640625 126.804688 57.367188 126.65625 Z M 45.011719 160.710938 L 44.839844 163.597656 L 39.308594 254.832031 C 39.277344 255.363281 39.496094 255.882812 39.898438 256.230469 C 40.300781 256.582031 40.84375 256.722656 41.367188 256.613281 C 41.582031 256.570312 63.027344 252.203125 91.058594 253.339844 C 113.3125 254.238281 143.773438 258.878906 170.257812 274.839844 C 151.277344 267.070312 124.121094 263.335938 89.238281 263.71875 C 62.859375 264.011719 40.066406 266.703125 33.207031 267.59375 L 40.226562 166.304688 L 40.429688 163.351562 L 41.558594 147.035156 C 41.5625 147.023438 41.558594 147.015625 41.558594 147.003906 C 41.558594 146.988281 41.5625 146.972656 41.5625 146.957031 L 41.746094 139.207031 C 43.152344 138.515625 44.976562 138.253906 46.378906 138.175781 Z M 36.84375 165.542969 L 36.632812 168.550781 L 29.644531 269.453125 C 29.609375 269.96875 29.808594 270.476562 30.1875 270.828125 C 30.566406 271.179688 31.082031 271.339844 31.597656 271.269531 C 32.59375 271.125 127.15625 257.789062 173.515625 280.042969 C 131.078125 266.511719 39.441406 276.574219 24.082031 278.394531 L 30.914062 172.386719 L 31.113281 169.296875 L 31.40625 164.738281 C 31.40625 164.734375 31.40625 164.730469 31.40625 164.726562 C 31.40625 164.722656 31.40625 164.722656 31.40625 164.71875 L 31.9375 154.648438 C 33.421875 152.292969 36.015625 150.625 37.945312 149.628906 Z M 21.457031 179.566406 C 19.40625 205.0625 14.296875 281.730469 13.625 291.828125 C 13.589844 292.339844 13.789062 292.839844 14.164062 293.191406 C 14.484375 293.492188 14.902344 293.65625 15.335938 293.65625 C 15.410156 293.65625 15.484375 293.652344 15.558594 293.640625 C 16.425781 293.527344 100.683594 282.601562 167.675781 285.875 C 168.320312 287.871094 169.855469 291.269531 173.390625 294.359375 C 178.8125 299.09375 187.113281 298.851562 187.113281 298.851562 C 187.113281 298.851562 195.410156 299.09375 200.832031 294.359375 C 204.382812 291.261719 205.914062 287.851562 206.550781 285.855469 C 273.476562 282.644531 357.441406 293.527344 358.308594 293.640625 C 358.382812 293.652344 358.457031 293.65625 358.53125 293.65625 C 358.964844 293.65625 359.386719 293.492188 359.703125 293.191406 C 360.078125 292.839844 360.277344 292.339844 360.242188 291.828125 C 359.566406 281.6875 354.414062 204.390625 352.386719 179.234375 C 352.335938 178.640625 352.289062 178.070312 352.246094 177.535156 C 353.933594 178.914062 354.828125 179.730469 354.828125 179.730469 L 367.949219 298.792969 C 367.644531 298.75 367.226562 298.695312 366.703125 298.625 C 351.152344 296.550781 241.035156 282.238281 210.84375 288.511719 C 210.132812 288.660156 209.589844 289.25 209.492188 289.964844 C 209.421875 290.464844 207.566406 302.148438 187.527344 302.148438 C 167.484375 302.148438 165.628906 290.464844 165.5625 289.976562 C 165.472656 289.25 164.929688 288.660156 164.210938 288.511719 C 134.007812 282.238281 23.828125 296.5625 8.332031 298.625 C 7.808594 298.695312 7.394531 298.753906 7.09375 298.792969 L 19.394531 179.730469 C 19.394531 179.730469 20.15625 179.042969 21.59375 177.867188 C 21.550781 178.40625 21.503906 178.96875 21.457031 179.566406 Z M 8.421875 302.074219 C 21.558594 300.332031 131.34375 286.074219 162.433594 291.660156 C 163.453125 295.316406 168.046875 305.574219 187.527344 305.574219 C 207.003906 305.574219 211.601562 295.316406 212.621094 291.660156 C 243.707031 286.070312 353.496094 300.332031 366.628906 302.074219 C 367.3125 302.164062 367.730469 302.222656 367.867188 302.238281 C 367.152344 304.410156 365.109375 305.945312 362.753906 305.945312 C 362.519531 305.945312 362.28125 305.929688 362.039062 305.898438 C 341.628906 303.210938 274.804688 294.824219 235.574219 294.824219 C 226.457031 294.824219 218.832031 295.277344 213.625 296.359375 C 213.625 296.359375 209.480469 310.03125 187.527344 310.03125 C 165.570312 310.03125 161.429688 296.359375 161.429688 296.359375 C 156.21875 295.277344 148.597656 294.824219 139.480469 294.824219 C 100.246094 294.824219 33.421875 303.210938 13.011719 305.898438 C 12.769531 305.929688 12.53125 305.945312 12.296875 305.945312 C 9.945312 305.945312 7.898438 304.410156 7.183594 302.238281 C 7.320312 302.222656 7.742188 302.164062 8.421875 302.074219 Z M 8.421875 302.074219 " fill-opacity="1" fill-rule="nonzero"/></g><g clip-path="url(#5237feda92)"><path fill="#235959" d="M 243.269531 74.015625 C 244.605469 78.113281 242.699219 81.40625 240.148438 84.125 C 234.847656 89.777344 228.109375 92.597656 220.34375 92.378906 C 215.949219 92.257812 211.882812 92.34375 207.8125 94.667969 C 203.875 96.921875 199.410156 96.496094 195.246094 94.480469 C 193.273438 93.527344 191.324219 92.53125 188.828125 91.289062 C 191.429688 98.671875 188.628906 107.453125 197.789062 111.832031 C 189.824219 112.882812 183.953125 107.679688 179.539062 96.15625 C 178.96875 118.375 187.453125 138 193.976562 158.886719 C 195.398438 155.652344 196.546875 153.042969 198.945312 151.167969 C 195.964844 155.71875 196.78125 160.441406 197.785156 165.238281 C 198.171875 167.097656 198.117188 169.0625 196.886719 170.78125 C 196.558594 171.238281 196.328125 171.90625 196.359375 172.457031 C 197 183.847656 195.609375 195.035156 193.121094 206.125 C 193.085938 206.289062 193.230469 206.496094 193.457031 207.207031 C 197.613281 200.960938 202.792969 196.117188 208.554688 191.882812 C 210.097656 190.707031 211.753906 189.796875 214.460938 189.292969 C 212.171875 192.332031 209.628906 193.894531 207.195312 195.570312 C 199.453125 202.222656 193.449219 210.074219 190.523438 220 C 189.636719 222.996094 187.328125 224.109375 184.683594 224.59375 C 182.710938 224.957031 183.589844 223.410156 183.828125 222.617188 C 185.089844 218.355469 186.46875 214.121094 187.726562 209.855469 C 188.296875 207.917969 188.726562 205.9375 189.167969 203.964844 C 189.714844 201.566406 189.972656 199.722656 187.917969 197.25 C 186.152344 195.113281 184.683594 192.847656 182.242188 191.40625 C 181.289062 190.839844 180.433594 190.683594 179.613281 191.773438 C 174.40625 198.773438 169.6875 196.785156 163.757812 194.714844 C 160.289062 193.503906 157.046875 191.234375 154.363281 188.300781 C 160.429688 189.445312 164.054688 184.597656 168.824219 182.742188 C 173.929688 180.757812 178.480469 181.738281 180.085938 186.445312 C 181.441406 190.402344 185.300781 190.9375 187.773438 193.292969 C 188.824219 194.289062 189.15625 192.59375 188.925781 191.800781 C 188.363281 189.863281 187.730469 187.925781 186.878906 186.105469 C 182.746094 177.210938 176.378906 170.09375 168.917969 163.878906 C 168.011719 163.121094 166.804688 162.671875 166.234375 161.46875 C 173.101562 162.574219 185.835938 176.914062 191.234375 189.285156 C 191.699219 183.367188 192.351562 177.351562 191.335938 171.535156 C 190.390625 166.089844 190.054688 160.527344 188.429688 155.179688 C 186.6875 149.460938 184.773438 143.828125 182.332031 138.367188 C 181.648438 136.832031 180.785156 135.5625 178.976562 135.167969 C 177.726562 134.894531 176.882812 133.949219 176.230469 132.90625 C 175.539062 131.792969 174.867188 130.652344 174.351562 129.449219 C 172.171875 124.351562 169.644531 119.589844 163.695312 117.761719 C 169.371094 117.109375 173.773438 119.546875 178.371094 123.628906 C 176.269531 112.410156 174.976562 101.949219 173.808594 91.480469 C 172.972656 91.523438 172.796875 92.070312 172.589844 92.476562 C 170.214844 97.09375 166.410156 99.640625 161.460938 101.109375 C 153.628906 103.4375 149.664062 108.875 149.96875 116.214844 C 150.035156 117.871094 150.472656 119.519531 150.746094 121.195312 C 149.882812 121.210938 149.726562 120.691406 149.53125 120.246094 C 146.027344 112.257812 149.75 101.433594 157.46875 97.347656 C 159.714844 96.15625 161.933594 95.003906 163.410156 92.191406 C 159.632812 93.933594 155.9375 94.390625 152.3125 95.132812 C 147.019531 96.207031 143.535156 99.375 141.535156 104.894531 C 140.910156 98.359375 147.375 91.03125 153.175781 90.875 C 156.015625 90.800781 158.488281 89.710938 160.496094 87.667969 C 161.046875 87.105469 161.910156 86.558594 161.742188 85.703125 C 161.539062 84.695312 160.421875 84.902344 159.699219 84.785156 C 149.113281 83.09375 142.859375 76.28125 138.640625 67.039062 C 138.539062 66.808594 138.628906 66.480469 138.628906 66.203125 C 139.757812 65.828125 140.195312 67.082031 140.832031 67.101562 C 139.945312 58.433594 136.855469 50.152344 135.449219 41.519531 C 134.125 33.402344 138.988281 24.757812 145.871094 22.207031 C 145.917969 22.382812 146.054688 22.671875 146 22.722656 C 136.769531 29.851562 138.683594 45.890625 143.496094 53.476562 C 145.863281 57.207031 147.570312 61.066406 148.546875 65.390625 C 150.101562 72.269531 154.59375 76.894531 160.789062 79.976562 C 161.691406 80.425781 162.871094 81.050781 163.550781 80.027344 C 164.394531 78.757812 162.847656 78.34375 162.164062 77.804688 C 158.359375 74.8125 155.171875 71.351562 153.617188 66.664062 C 152.785156 64.144531 152.28125 61.511719 153.089844 58.90625 C 153.832031 56.511719 153.398438 54.417969 152.378906 52.214844 C 149.5 45.988281 148.226562 39.65625 150.605469 32.832031 C 151.445312 30.433594 151.011719 27.621094 151.347656 25.023438 C 151.773438 21.734375 152.59375 18.589844 156.308594 17.398438 C 157.023438 17.167969 157.070312 16.601562 157.230469 15.996094 C 159.925781 5.425781 165.480469 0.925781 176.050781 0.417969 C 183.382812 0.0664062 190.117188 1.753906 196.132812 5.941406 C 197.886719 7.164062 199.382812 7.367188 201.4375 6.671875 C 207.382812 4.660156 213.339844 4.535156 219.117188 7.464844 C 221.726562 8.796875 223.617188 10.847656 225.171875 13.265625 C 224.496094 15.046875 223.6875 13.949219 222.929688 13.355469 C 216.847656 8.59375 210.265625 8.796875 203.460938 11.417969 C 202.882812 11.644531 201.996094 11.734375 202.199219 13.160156 C 206.441406 12.679688 210.503906 13.265625 213.703125 16.535156 C 213.933594 16.773438 214.472656 16.707031 214.867188 16.773438 C 220.429688 17.730469 224.382812 20.863281 227.15625 25.703125 C 229.082031 29.058594 229.609375 32.800781 230.238281 36.835938 C 234.652344 28.179688 232.710938 18.441406 225.6875 12.710938 C 225.457031 12.09375 224.460938 11.582031 225.023438 10.890625 C 225.558594 10.242188 226.335938 10.839844 226.96875 11.109375 C 233.152344 13.699219 236.820312 21.5625 235.167969 28.980469 C 233.519531 36.40625 229.6875 42.867188 225.863281 49.308594 C 225.371094 50.140625 224.847656 50.953125 224.492188 51.882812 C 228.863281 48.269531 233.699219 45.171875 236.734375 40.253906 C 239.632812 35.5625 245.902344 33.699219 246.972656 27.445312 C 248.375 30.679688 247.535156 33.554688 245.683594 35.75 C 241.132812 41.148438 239.65625 47.417969 239.007812 54.226562 C 238.378906 60.757812 235.824219 66.726562 231.421875 72.675781 C 236.625 71.296875 241.242188 70.421875 245.09375 67.539062 C 249.847656 63.980469 250.417969 60.246094 247.414062 53.925781 C 250.292969 54.320312 252.296875 56.574219 252.507812 59.828125 C 252.84375 64.964844 250.324219 68.722656 246.511719 71.78125 C 245.488281 72.601562 244.371094 73.304688 243.296875 74.066406 C 240.300781 74.925781 237.445312 76.40625 234.296875 76.613281 C 228.808594 76.972656 225.394531 80.464844 222.148438 84.277344 C 221.824219 84.652344 221.394531 85.039062 221.625 85.585938 C 221.867188 86.171875 222.46875 85.992188 222.949219 86.035156 C 233.082031 86.898438 239.132812 83.324219 243.269531 74.015625 Z M 201.085938 74.410156 C 200.417969 79 201.324219 79.769531 204.742188 78.539062 C 209.167969 76.941406 213.230469 74.703125 216.726562 71.550781 C 218.109375 70.308594 219.597656 69.421875 221.332031 68.746094 C 226.765625 66.632812 230.652344 62.816406 233.203125 57.59375 C 233.886719 56.199219 234.171875 55.039062 232.648438 53.902344 C 230.945312 52.632812 230.28125 54.109375 229.4375 54.960938 C 225.71875 58.71875 221.453125 62.082031 216.171875 62.324219 C 207.910156 62.707031 201.628906 66.609375 195.597656 71.59375 C 188.761719 77.25 181.296875 81.015625 171.996094 78.332031 C 182.441406 84.621094 191.851562 82.152344 201.085938 74.410156 Z M 163.554688 28.695312 C 160.933594 30.195312 160.101562 32.152344 158.917969 33.703125 C 156.027344 37.515625 156.539062 46.921875 160.332031 49.5 C 162.183594 50.757812 161.667969 51.582031 161.472656 52.742188 C 160.59375 57.96875 162.535156 61.6875 167.015625 64.453125 C 172.152344 67.625 177.714844 69.191406 183.652344 69.492188 C 186.042969 69.613281 188.398438 69.164062 190.109375 67.355469 C 184.859375 64.480469 179.035156 62.898438 174.449219 59.015625 C 171.046875 56.136719 168.21875 52.914062 168.375 48.027344 C 168.414062 46.886719 167.914062 45.816406 167.234375 44.941406 C 163.628906 40.320312 162.039062 35.191406 163.554688 28.695312 Z M 187.160156 14.375 C 181.890625 11.902344 177.015625 12.652344 172.242188 14.816406 C 169.683594 15.984375 168.054688 18.078125 167.648438 20.847656 C 166.804688 26.527344 167.957031 31.882812 170.5 37.027344 C 171.058594 38.148438 172.632812 38.238281 172.691406 39.734375 C 172.734375 40.730469 172.9375 42.59375 174.144531 41.894531 C 175.382812 41.183594 178.328125 40.984375 177.035156 37.949219 C 176.007812 35.539062 175.15625 33.023438 174.515625 30.488281 C 173.085938 24.867188 174.890625 20.660156 179.765625 17.484375 C 181.976562 16.042969 184.488281 15.296875 187.160156 14.375 Z M 215.667969 52.5 C 202.582031 50.582031 193.050781 40.996094 180.984375 37.042969 C 185.515625 40.601562 190.296875 43.691406 195.824219 45.335938 C 195.210938 46.792969 193.523438 45.566406 193.691406 46.734375 C 193.90625 48.183594 193.679688 49.878906 195.882812 50.699219 C 198.902344 51.820312 201.722656 53.542969 204.929688 54.121094 C 208.601562 54.777344 212.304688 55.082031 215.667969 52.5 Z M 194.378906 37.226562 C 198.265625 38.257812 201.667969 39.144531 205.0625 40.0625 C 207.910156 40.832031 210.789062 41.324219 213.75 41.070312 C 219.003906 40.613281 223.46875 36.578125 223.714844 32.082031 C 223.957031 27.566406 219.871094 22.734375 214.308594 21.59375 C 216.390625 23.503906 217.910156 25.222656 218.851562 27.367188 C 221.59375 33.621094 218.347656 38.988281 211.527344 39.21875 C 209.738281 39.277344 207.921875 38.859375 206.132812 38.542969 C 202.472656 37.90625 198.890625 36.636719 194.378906 37.226562 Z M 188.890625 9.347656 C 190.109375 9.402344 190.941406 8.929688 190.992188 8.171875 C 191.050781 7.234375 190.316406 7.015625 189.648438 6.816406 C 183.402344 4.929688 177.089844 4.023438 170.660156 5.839844 C 169.992188 6.027344 168.699219 6.105469 168.972656 7.144531 C 169.246094 8.1875 170.367188 8.054688 171.289062 7.761719 C 173.445312 7.078125 175.789062 6.511719 177.761719 7.652344 C 181.320312 9.707031 185.121094 9.234375 188.890625 9.347656 Z M 203.996094 33.097656 C 206.957031 34.148438 209.792969 34.074219 212.085938 31.742188 C 213.71875 30.082031 213.902344 27.847656 213.078125 25.820312 C 212.105469 23.421875 209.859375 22.8125 206.8125 22.632812 C 210.109375 24.167969 211.898438 26.1875 211.078125 29.296875 C 210.132812 32.902344 206.96875 32.910156 203.996094 33.097656 Z M 181.324219 170.167969 C 182.03125 164.714844 181.066406 159.460938 179.0625 154.351562 C 176.324219 147.371094 169.65625 144.554688 164.179688 140.488281 C 163.707031 140.136719 162.707031 139.890625 162.503906 140.371094 C 160.957031 144.140625 158.925781 141.210938 157.058594 140.875 C 155.628906 140.621094 153.21875 139.441406 152.890625 140.730469 C 152.128906 143.710938 150.296875 142.449219 148.792969 142.4375 C 146.640625 142.425781 144.535156 142.683594 142.488281 143.230469 C 135.542969 145.089844 128.707031 148.117188 121.257812 144.671875 C 123.730469 148.882812 126 152.921875 129.402344 156.15625 C 129.964844 156.695312 131.082031 157.273438 130.789062 158.003906 C 129.644531 160.878906 132.035156 161.898438 133.390625 163.488281 C 137.65625 168.511719 144.195312 170.222656 149.1875 174.527344 C 153.816406 178.527344 161.085938 178.699219 167.464844 176.332031 C 170.277344 175.285156 172.535156 173.464844 174.121094 169.96875 C 171.101562 170.78125 168.898438 172.359375 166.167969 171.308594 C 166.925781 170.285156 167.558594 169.507812 168.097656 168.667969 C 168.527344 168 169.230469 167.132812 168.734375 166.457031 C 167.964844 165.414062 167.089844 166.488281 166.367188 166.828125 C 162.300781 168.757812 158.1875 168.371094 154.023438 167.230469 C 157.480469 166.496094 161.042969 166.320312 164.234375 164.660156 C 164.832031 164.351562 165.71875 164.230469 165.730469 163.367188 C 165.742188 162.519531 164.867188 162.324219 164.285156 161.984375 C 159.277344 159.0625 154.054688 156.703125 148.300781 155.671875 C 144.339844 154.960938 140.382812 154.21875 136.429688 153.492188 C 140.390625 153.550781 144.273438 154.027344 148.113281 154.875 C 152.453125 155.839844 156.707031 157.292969 161.023438 158.09375 C 163.125 158.480469 164.722656 159.210938 166.476562 160.113281 C 169.996094 161.9375 173.304688 164.074219 176.285156 166.664062 C 177.890625 168.054688 178.800781 168.347656 178.667969 164.941406 C 179.492188 167.265625 180.019531 168.773438 180.554688 170.269531 C 180.808594 170.234375 181.070312 170.203125 181.324219 170.167969 Z M 215.664062 202.230469 C 218.785156 203.101562 221.910156 202.660156 224.957031 202 C 232.964844 200.261719 238.613281 194.671875 244.578125 189.636719 C 244.875 189.390625 245.082031 189 245.246094 188.636719 C 245.410156 188.277344 245.671875 187.671875 245.53125 187.523438 C 244.167969 186.109375 245.59375 185.417969 246.273438 184.617188 C 249.265625 181.089844 251.324219 177.046875 253.703125 172.53125 C 244.464844 175.734375 243.613281 175.828125 236.644531 174.59375 C 232.066406 173.78125 227.488281 172.96875 222.820312 173.890625 C 222.359375 173.980469 221.59375 173.980469 221.394531 173.707031 C 219.125 170.613281 217.207031 173.050781 215.203125 174.042969 C 214.4375 174.425781 213.976562 175.734375 212.949219 175.183594 C 211.394531 174.351562 210.4375 175.351562 209.402344 176.058594 C 204.390625 179.457031 202.289062 184.453125 202.0625 190.289062 C 201.894531 194.644531 202.597656 194.980469 206.378906 192.867188 C 207.078125 192.480469 207.84375 192.210938 208.574219 191.890625 C 210.113281 190.710938 211.773438 189.800781 214.480469 189.296875 C 212.191406 192.339844 209.648438 193.898438 207.210938 195.574219 C 208.761719 199.414062 211.921875 201.183594 215.664062 202.230469 Z M 203.042969 146.054688 C 202.28125 147.394531 204.492188 147.121094 203.976562 147.84375 C 203.417969 148.621094 202.300781 148.957031 201.875 149.953125 C 201.558594 150.691406 201.117188 151.445312 201.851562 152.1875 C 202.582031 152.921875 203.441406 152.855469 204.390625 152.675781 C 210.515625 151.53125 214.207031 143.984375 212.675781 137.980469 C 211.347656 132.769531 207.621094 127.257812 212.300781 121.777344 C 211.269531 121.25 210.546875 121.800781 209.921875 122.1875 C 204.078125 125.855469 198.605469 129.894531 195.921875 136.636719 C 195.703125 137.195312 195.515625 137.808594 195.144531 138.253906 C 192.066406 141.90625 192.382812 146.667969 196.023438 149.617188 C 197.566406 150.867188 198.605469 150.304688 199.035156 148.464844 C 199.167969 147.894531 199.222656 147.304688 199.308594 146.726562 C 203.023438 148.292969 201.984375 144.269531 203.777344 143.0625 C 203.519531 144.191406 203.496094 145.246094 203.042969 146.054688 Z M 203.042969 146.054688 " fill-opacity="1" fill-rule="nonzero"/></g></svg>