<svg xmlns="http://www.w3.org/2000/svg" xmlns:xlink="http://www.w3.org/1999/xlink" width="300" zoomAndPan="magnify" viewBox="0 0 224.87999 74.999997" height="100" preserveAspectRatio="xMidYMid meet" version="1.0"><defs><g/><clipPath id="4c2ee16234"><path d="M 7.496094 29.082031 L 60.71875 29.082031 L 60.71875 59.816406 L 7.496094 59.816406 Z M 7.496094 29.082031 " clip-rule="nonzero"/></clipPath><clipPath id="d8ff28c880"><path d="M 24.777344 14.917969 L 43.519531 14.917969 L 43.519531 47 L 24.777344 47 Z M 24.777344 14.917969 " clip-rule="nonzero"/></clipPath></defs><g clip-path="url(#4c2ee16234)"><path fill="#235959" d="M 60.929688 57.640625 L 59.03125 40.425781 C 59.003906 40.1875 58.894531 39.96875 58.71875 39.808594 C 58.710938 39.804688 58.589844 39.691406 58.367188 39.507812 C 58.347656 39.3125 58.335938 39.25 58.324219 39.199219 C 58.203125 38.636719 57.8125 38.179688 57.496094 37.890625 L 57.4375 36.832031 C 57.429688 36.683594 57.386719 36.535156 57.3125 36.402344 C 56.996094 35.84375 56.476562 35.460938 56.058594 35.226562 L 56.042969 34.59375 C 56.035156 34.28125 55.878906 33.992188 55.621094 33.8125 C 55.371094 33.636719 55.082031 33.53125 54.804688 33.46875 L 54.761719 32.960938 C 54.730469 32.640625 54.546875 32.355469 54.265625 32.199219 C 53.933594 32.011719 53.570312 31.898438 53.25 31.832031 L 53.1875 30.914062 C 53.164062 30.585938 52.980469 30.292969 52.691406 30.128906 C 52.613281 30.085938 50.78125 29.082031 47.023438 29.082031 C 45.996094 29.082031 44.90625 29.160156 43.785156 29.304688 C 39.210938 29.90625 35.660156 33.195312 34.136719 34.847656 C 32.613281 33.195312 29.0625 29.90625 24.492188 29.304688 C 23.367188 29.160156 22.277344 29.082031 21.253906 29.082031 C 17.492188 29.082031 15.660156 30.085938 15.582031 30.128906 C 15.296875 30.292969 15.109375 30.585938 15.085938 30.914062 L 15.023438 31.832031 C 14.703125 31.898438 14.34375 32.011719 14.007812 32.199219 C 13.726562 32.355469 13.542969 32.640625 13.515625 32.960938 L 13.46875 33.46875 C 13.191406 33.53125 12.90625 33.636719 12.652344 33.8125 C 12.394531 33.992188 12.238281 34.28125 12.234375 34.59375 L 12.21875 35.226562 C 11.800781 35.460938 11.28125 35.84375 10.960938 36.402344 C 10.886719 36.535156 10.84375 36.683594 10.835938 36.832031 L 10.78125 37.890625 C 10.464844 38.179688 10.070312 38.636719 9.953125 39.199219 C 9.9375 39.253906 9.925781 39.324219 9.90625 39.554688 C 9.71875 39.710938 9.617188 39.800781 9.609375 39.804688 C 9.429688 39.96875 9.316406 40.191406 9.292969 40.429688 L 7.515625 57.648438 C 7.511719 57.679688 7.507812 57.714844 7.507812 57.746094 C 7.507812 58.710938 8.292969 59.492188 9.253906 59.492188 C 9.328125 59.492188 9.40625 59.488281 9.484375 59.476562 C 12.277344 59.109375 21.832031 57.910156 27.375 57.910156 C 28.410156 57.910156 29.238281 57.949219 29.855469 58.03125 C 30.335938 58.8125 31.53125 60.074219 34.222656 60.074219 C 36.910156 60.074219 38.105469 58.8125 38.589844 58.03125 C 39.203125 57.949219 40.035156 57.910156 41.066406 57.910156 C 46.609375 57.910156 56.164062 59.109375 58.960938 59.476562 C 59.035156 59.488281 59.113281 59.492188 59.191406 59.492188 C 60.152344 59.492188 60.933594 58.710938 60.933594 57.746094 C 60.933594 57.710938 60.933594 57.675781 60.929688 57.640625 Z M 11.125 39.625 C 11.132812 39.539062 11.140625 39.480469 11.144531 39.453125 C 11.183594 39.277344 11.308594 39.097656 11.453125 38.945312 L 11.421875 39.40625 L 11.394531 39.855469 L 10.425781 54.851562 C 10.421875 54.925781 10.449219 54.996094 10.503906 55.046875 C 10.554688 55.097656 10.628906 55.121094 10.699219 55.109375 C 10.851562 55.089844 25.171875 53.328125 31.722656 55.183594 C 22.917969 54.710938 11.886719 56.003906 9.949219 56.242188 C 10.230469 52.039062 10.867188 42.640625 11.082031 40.089844 C 11.097656 39.890625 11.113281 39.734375 11.125 39.625 Z M 42.164062 31.082031 C 43.152344 30.761719 44.140625 30.53125 45.105469 30.390625 C 48.644531 30.089844 50.78125 30.679688 51.644531 31.003906 C 51.757812 31.046875 51.871094 31.09375 51.980469 31.144531 L 52.089844 32.730469 C 52.089844 32.730469 52.089844 32.730469 52.089844 32.734375 L 52.453125 36.820312 L 52.488281 37.21875 L 53.511719 48.757812 C 52.640625 48.542969 50.191406 48.042969 47.042969 48.300781 C 43.589844 48.578125 38.648438 49.867188 34.40625 54.34375 C 34.390625 54.363281 34.375 54.378906 34.355469 54.398438 L 34.355469 36.457031 C 34.371094 36.441406 34.386719 36.417969 34.40625 36.394531 C 34.78125 35.9375 36.179688 34.316406 38.242188 32.878906 C 39.421875 32.15625 40.75 31.539062 42.164062 31.082031 Z M 57.1875 40.042969 C 57.398438 42.519531 58.042969 52.011719 58.324219 56.242188 C 58.042969 56.207031 57.566406 56.148438 56.933594 56.078125 C 56.820312 56.066406 56.699219 56.050781 56.574219 56.039062 C 56.261719 56.003906 55.917969 55.96875 55.542969 55.929688 C 54.6875 55.839844 53.683594 55.742188 52.566406 55.648438 C 52.289062 55.625 52.003906 55.601562 51.714844 55.574219 C 50.695312 55.492188 49.597656 55.414062 48.453125 55.339844 C 46.003906 55.191406 43.332031 55.082031 40.699219 55.082031 C 39.820312 55.082031 38.949219 55.09375 38.089844 55.121094 C 37.804688 55.128906 37.519531 55.140625 37.234375 55.152344 C 37.003906 55.160156 36.777344 55.171875 36.550781 55.183594 C 43.097656 53.328125 57.421875 55.089844 57.574219 55.109375 C 57.648438 55.121094 57.71875 55.097656 57.773438 55.046875 C 57.824219 54.996094 57.851562 54.925781 57.847656 54.851562 L 56.878906 39.808594 L 56.851562 39.359375 L 56.824219 38.945312 C 56.964844 39.097656 57.089844 39.277344 57.128906 39.453125 C 57.132812 39.472656 57.140625 39.515625 57.144531 39.574219 C 57.15625 39.675781 57.171875 39.835938 57.1875 40.042969 Z M 54.382812 38.183594 L 54.355469 37.773438 L 54.164062 34.609375 C 54.363281 34.621094 54.625 34.660156 54.824219 34.757812 L 54.851562 35.863281 C 54.851562 35.863281 54.851562 35.867188 54.851562 35.867188 C 54.851562 35.871094 54.851562 35.871094 54.851562 35.875 L 55.007812 38.148438 L 55.039062 38.570312 L 56.039062 53.039062 C 55.121094 52.882812 52.25 52.445312 48.734375 52.367188 C 45.164062 52.289062 40.238281 52.582031 36.179688 54.289062 C 40.03125 51.847656 44.535156 51.152344 47.796875 51.019531 C 51.792969 50.859375 54.847656 51.480469 54.878906 51.488281 C 54.953125 51.503906 55.03125 51.480469 55.089844 51.433594 C 55.144531 51.382812 55.175781 51.308594 55.171875 51.234375 Z M 56.335938 38.996094 L 56.367188 39.4375 L 57.34375 54.589844 C 55.203125 54.335938 42.675781 52.960938 36.464844 54.699219 C 44.476562 51.378906 56.136719 53.550781 56.261719 53.574219 C 56.335938 53.585938 56.410156 53.566406 56.46875 53.515625 C 56.523438 53.464844 56.554688 53.390625 56.550781 53.316406 L 55.550781 38.890625 L 55.519531 38.460938 L 55.367188 36.242188 C 55.640625 36.382812 56.011719 36.621094 56.222656 36.957031 L 56.296875 38.394531 Z M 53.664062 34.386719 L 53.851562 37.5 L 53.875 37.90625 L 54.667969 50.953125 C 53.78125 50.796875 51.101562 50.398438 47.792969 50.53125 C 44.128906 50.679688 38.933594 51.523438 34.761719 54.679688 C 38.890625 50.320312 43.699219 49.0625 47.0625 48.789062 C 50.859375 48.476562 53.6875 49.308594 53.71875 49.316406 C 53.796875 49.339844 53.878906 49.324219 53.941406 49.273438 C 54.003906 49.222656 54.039062 49.144531 54.03125 49.0625 L 53 37.457031 L 52.964844 37.054688 L 52.597656 32.96875 C 52.84375 32.992188 53.222656 33.046875 53.554688 33.207031 Z M 33.867188 36.371094 C 33.867188 36.371094 33.867188 36.371094 33.867188 36.375 L 33.867188 54.34375 C 29.628906 49.867188 24.6875 48.578125 21.230469 48.300781 C 18.082031 48.042969 15.636719 48.542969 14.761719 48.757812 L 15.785156 37.261719 L 15.820312 36.867188 L 16.1875 32.734375 C 16.1875 32.730469 16.1875 32.730469 16.1875 32.730469 L 16.296875 31.144531 C 18.964844 29.945312 22.53125 29.917969 26.109375 31.082031 C 29.476562 32.171875 32.359375 34.144531 33.867188 36.371094 Z M 15.308594 37.101562 L 15.273438 37.503906 L 14.242188 49.0625 C 14.238281 49.144531 14.269531 49.222656 14.332031 49.273438 C 14.394531 49.324219 14.480469 49.339844 14.558594 49.316406 C 14.585938 49.308594 17.414062 48.476562 21.210938 48.789062 C 24.574219 49.0625 29.382812 50.320312 33.511719 54.679688 C 29.339844 51.523438 24.144531 50.679688 20.484375 50.53125 C 17.171875 50.398438 14.496094 50.796875 13.609375 50.953125 L 14.398438 37.953125 L 14.421875 37.546875 L 14.613281 34.386719 L 14.71875 33.207031 C 15.050781 33.046875 15.429688 32.992188 15.675781 32.96875 Z M 13.914062 37.820312 L 13.890625 38.234375 L 13.101562 51.234375 C 13.097656 51.308594 13.128906 51.382812 13.1875 51.433594 C 13.242188 51.480469 13.320312 51.503906 13.394531 51.488281 C 13.425781 51.480469 16.480469 50.859375 20.476562 51.019531 C 23.648438 51.148438 27.988281 51.808594 31.761719 54.082031 C 29.054688 52.976562 25.1875 52.445312 20.21875 52.5 C 16.457031 52.539062 13.210938 52.925781 12.234375 53.050781 L 13.234375 38.621094 L 13.261719 38.199219 L 13.421875 35.875 C 13.421875 35.871094 13.421875 35.871094 13.421875 35.867188 C 13.421875 35.867188 13.421875 35.863281 13.421875 35.863281 L 13.449219 34.757812 C 13.648438 34.660156 13.910156 34.621094 14.109375 34.609375 Z M 12.75 38.511719 L 12.722656 38.9375 L 11.726562 53.316406 C 11.71875 53.390625 11.75 53.460938 11.804688 53.511719 C 11.855469 53.5625 11.929688 53.585938 12.003906 53.574219 C 12.144531 53.554688 25.621094 51.65625 32.226562 54.824219 C 26.179688 52.898438 13.121094 54.332031 10.933594 54.589844 L 11.90625 39.484375 L 11.933594 39.046875 L 11.976562 38.394531 L 12.050781 36.957031 C 12.261719 36.621094 12.632812 36.382812 12.90625 36.242188 Z M 10.558594 40.507812 C 10.265625 44.140625 9.539062 55.066406 9.441406 56.503906 C 9.4375 56.578125 9.464844 56.648438 9.519531 56.699219 C 9.566406 56.742188 9.625 56.765625 9.6875 56.765625 C 9.695312 56.765625 9.707031 56.765625 9.71875 56.761719 C 9.84375 56.746094 21.847656 55.191406 31.394531 55.65625 C 31.484375 55.941406 31.703125 56.425781 32.207031 56.863281 C 32.980469 57.539062 34.164062 57.503906 34.164062 57.503906 C 34.164062 57.503906 35.34375 57.539062 36.117188 56.863281 C 36.625 56.425781 36.839844 55.9375 36.933594 55.652344 C 46.46875 55.195312 58.433594 56.746094 58.554688 56.761719 C 58.566406 56.765625 58.578125 56.765625 58.589844 56.765625 C 58.648438 56.765625 58.710938 56.742188 58.753906 56.699219 C 58.808594 56.648438 58.835938 56.578125 58.832031 56.503906 C 58.734375 55.058594 58 44.046875 57.710938 40.460938 C 57.707031 40.375 57.699219 40.296875 57.691406 40.21875 C 57.933594 40.414062 58.0625 40.53125 58.0625 40.53125 L 59.929688 57.496094 C 59.886719 57.492188 59.828125 57.484375 59.753906 57.472656 C 57.535156 57.175781 41.847656 55.136719 37.542969 56.03125 C 37.441406 56.054688 37.367188 56.136719 37.351562 56.238281 C 37.34375 56.308594 37.078125 57.976562 34.222656 57.976562 C 31.367188 57.976562 31.101562 56.308594 31.09375 56.242188 C 31.078125 56.136719 31 56.054688 30.898438 56.03125 C 26.597656 55.136719 10.898438 57.179688 8.6875 57.472656 C 8.613281 57.484375 8.554688 57.492188 8.511719 57.496094 L 10.265625 40.53125 C 10.265625 40.53125 10.375 40.433594 10.578125 40.265625 C 10.570312 40.34375 10.566406 40.421875 10.558594 40.507812 Z M 8.703125 57.964844 C 10.574219 57.714844 26.214844 55.683594 30.644531 56.480469 C 30.792969 57 31.445312 58.464844 34.222656 58.464844 C 36.996094 58.464844 37.652344 57 37.796875 56.480469 C 42.226562 55.683594 57.871094 57.714844 59.742188 57.964844 C 59.839844 57.976562 59.898438 57.984375 59.917969 57.988281 C 59.816406 58.296875 59.523438 58.515625 59.191406 58.515625 C 59.15625 58.515625 59.121094 58.515625 59.089844 58.507812 C 56.179688 58.125 46.65625 56.933594 41.066406 56.933594 C 39.769531 56.933594 38.683594 56.996094 37.941406 57.152344 C 37.941406 57.152344 37.351562 59.097656 34.222656 59.097656 C 31.09375 59.097656 30.503906 57.152344 30.503906 57.152344 C 29.761719 56.996094 28.675781 56.933594 27.375 56.933594 C 21.785156 56.933594 12.261719 58.125 9.355469 58.507812 C 9.320312 58.515625 9.289062 58.515625 9.253906 58.515625 C 8.917969 58.515625 8.628906 58.296875 8.523438 57.988281 C 8.542969 57.984375 8.605469 57.976562 8.703125 57.964844 Z M 8.703125 57.964844 " fill-opacity="1" fill-rule="nonzero"/></g><g clip-path="url(#d8ff28c880)"><path fill="#235959" d="M 42.15625 25.464844 C 42.347656 26.050781 42.074219 26.519531 41.710938 26.90625 C 40.957031 27.710938 39.996094 28.113281 38.890625 28.082031 C 38.265625 28.066406 37.6875 28.078125 37.105469 28.40625 C 36.546875 28.730469 35.910156 28.667969 35.316406 28.382812 C 35.035156 28.246094 34.757812 28.105469 34.402344 27.925781 C 34.773438 28.976562 34.375 30.230469 35.679688 30.851562 C 34.542969 31.003906 33.707031 30.261719 33.078125 28.621094 C 33 31.785156 34.207031 34.578125 35.136719 37.554688 C 35.339844 37.09375 35.5 36.722656 35.84375 36.457031 C 35.417969 37.105469 35.535156 37.777344 35.679688 38.460938 C 35.734375 38.722656 35.726562 39.003906 35.550781 39.25 C 35.503906 39.3125 35.472656 39.410156 35.476562 39.488281 C 35.566406 41.109375 35.367188 42.703125 35.015625 44.285156 C 35.007812 44.308594 35.03125 44.335938 35.0625 44.4375 C 35.652344 43.546875 36.390625 42.859375 37.210938 42.253906 C 37.433594 42.085938 37.667969 41.957031 38.054688 41.886719 C 37.726562 42.320312 37.367188 42.542969 37.019531 42.78125 C 35.917969 43.726562 35.0625 44.847656 34.644531 46.261719 C 34.519531 46.6875 34.1875 46.84375 33.8125 46.914062 C 33.53125 46.964844 33.65625 46.746094 33.691406 46.632812 C 33.871094 46.027344 34.066406 45.421875 34.246094 44.816406 C 34.328125 44.539062 34.386719 44.257812 34.453125 43.976562 C 34.527344 43.632812 34.566406 43.371094 34.273438 43.019531 C 34.019531 42.714844 33.8125 42.394531 33.464844 42.1875 C 33.328125 42.105469 33.207031 42.082031 33.089844 42.238281 C 32.347656 43.238281 31.675781 42.953125 30.832031 42.65625 C 30.335938 42.484375 29.875 42.164062 29.492188 41.746094 C 30.359375 41.90625 30.875 41.21875 31.554688 40.953125 C 32.28125 40.671875 32.929688 40.808594 33.15625 41.480469 C 33.351562 42.042969 33.902344 42.121094 34.253906 42.457031 C 34.402344 42.597656 34.449219 42.355469 34.417969 42.242188 C 34.335938 41.96875 34.246094 41.691406 34.125 41.433594 C 33.535156 40.164062 32.628906 39.152344 31.566406 38.265625 C 31.4375 38.15625 31.265625 38.09375 31.183594 37.921875 C 32.164062 38.082031 33.976562 40.121094 34.746094 41.886719 C 34.8125 41.042969 34.90625 40.183594 34.761719 39.355469 C 34.625 38.582031 34.578125 37.789062 34.347656 37.027344 C 34.097656 36.210938 33.824219 35.410156 33.476562 34.632812 C 33.378906 34.414062 33.257812 34.234375 33 34.175781 C 32.820312 34.136719 32.699219 34.003906 32.609375 33.855469 C 32.511719 33.695312 32.414062 33.535156 32.339844 33.363281 C 32.03125 32.636719 31.671875 31.957031 30.824219 31.699219 C 31.632812 31.605469 32.257812 31.953125 32.914062 32.53125 C 32.613281 30.933594 32.429688 29.445312 32.261719 27.953125 C 32.144531 27.960938 32.117188 28.039062 32.089844 28.097656 C 31.75 28.753906 31.210938 29.117188 30.503906 29.324219 C 29.390625 29.65625 28.824219 30.429688 28.867188 31.476562 C 28.878906 31.714844 28.9375 31.949219 28.976562 32.1875 C 28.855469 32.1875 28.832031 32.113281 28.804688 32.050781 C 28.304688 30.914062 28.835938 29.371094 29.933594 28.789062 C 30.253906 28.621094 30.570312 28.457031 30.78125 28.054688 C 30.246094 28.304688 29.71875 28.367188 29.203125 28.472656 C 28.449219 28.625 27.949219 29.078125 27.667969 29.863281 C 27.578125 28.933594 28.5 27.890625 29.324219 27.867188 C 29.730469 27.855469 30.082031 27.703125 30.367188 27.410156 C 30.445312 27.332031 30.570312 27.253906 30.542969 27.128906 C 30.515625 26.988281 30.355469 27.015625 30.253906 27 C 28.746094 26.757812 27.855469 25.789062 27.253906 24.472656 C 27.238281 24.441406 27.253906 24.394531 27.253906 24.351562 C 27.414062 24.300781 27.476562 24.480469 27.566406 24.480469 C 27.441406 23.246094 27 22.066406 26.800781 20.835938 C 26.609375 19.679688 27.304688 18.449219 28.285156 18.085938 C 28.289062 18.113281 28.308594 18.152344 28.300781 18.160156 C 26.988281 19.175781 27.261719 21.460938 27.945312 22.539062 C 28.28125 23.070312 28.527344 23.621094 28.664062 24.238281 C 28.886719 25.21875 29.527344 25.875 30.410156 26.316406 C 30.539062 26.378906 30.707031 26.46875 30.800781 26.320312 C 30.921875 26.140625 30.703125 26.082031 30.605469 26.003906 C 30.0625 25.578125 29.609375 25.085938 29.386719 24.417969 C 29.269531 24.058594 29.195312 23.683594 29.3125 23.3125 C 29.417969 22.972656 29.355469 22.675781 29.210938 22.359375 C 28.800781 21.472656 28.621094 20.570312 28.957031 19.597656 C 29.078125 19.257812 29.015625 18.859375 29.0625 18.488281 C 29.125 18.019531 29.242188 17.570312 29.769531 17.402344 C 29.871094 17.367188 29.878906 17.289062 29.902344 17.203125 C 30.285156 15.695312 31.078125 15.054688 32.582031 14.984375 C 33.628906 14.933594 34.585938 15.171875 35.441406 15.769531 C 35.691406 15.945312 35.90625 15.972656 36.199219 15.875 C 37.046875 15.585938 37.894531 15.570312 38.71875 15.988281 C 39.089844 16.175781 39.359375 16.46875 39.578125 16.8125 C 39.484375 17.066406 39.367188 16.910156 39.261719 16.824219 C 38.394531 16.148438 37.457031 16.175781 36.488281 16.550781 C 36.40625 16.582031 36.277344 16.59375 36.308594 16.796875 C 36.910156 16.730469 37.488281 16.8125 37.945312 17.277344 C 37.980469 17.3125 38.054688 17.304688 38.113281 17.3125 C 38.902344 17.449219 39.46875 17.894531 39.863281 18.585938 C 40.136719 19.0625 40.210938 19.59375 40.300781 20.171875 C 40.929688 18.9375 40.652344 17.550781 39.652344 16.734375 C 39.621094 16.644531 39.476562 16.574219 39.558594 16.472656 C 39.632812 16.382812 39.746094 16.46875 39.835938 16.503906 C 40.714844 16.875 41.238281 17.996094 41.003906 19.050781 C 40.769531 20.109375 40.222656 21.027344 39.679688 21.945312 C 39.609375 22.066406 39.535156 22.179688 39.480469 22.3125 C 40.105469 21.796875 40.792969 21.359375 41.226562 20.65625 C 41.640625 19.988281 42.53125 19.722656 42.683594 18.832031 C 42.882812 19.292969 42.765625 19.703125 42.5 20.015625 C 41.851562 20.785156 41.640625 21.675781 41.550781 22.648438 C 41.460938 23.578125 41.097656 24.425781 40.46875 25.273438 C 41.210938 25.078125 41.867188 24.953125 42.417969 24.542969 C 43.09375 24.035156 43.175781 23.503906 42.746094 22.605469 C 43.15625 22.660156 43.441406 22.980469 43.472656 23.445312 C 43.519531 24.175781 43.160156 24.710938 42.617188 25.148438 C 42.472656 25.265625 42.3125 25.363281 42.160156 25.472656 C 41.734375 25.597656 41.328125 25.808594 40.878906 25.835938 C 40.097656 25.886719 39.609375 26.382812 39.148438 26.925781 C 39.101562 26.980469 39.042969 27.035156 39.074219 27.113281 C 39.109375 27.199219 39.195312 27.171875 39.261719 27.179688 C 40.707031 27.300781 41.566406 26.792969 42.15625 25.464844 Z M 36.148438 25.523438 C 36.054688 26.175781 36.183594 26.285156 36.667969 26.109375 C 37.300781 25.882812 37.878906 25.5625 38.375 25.113281 C 38.574219 24.9375 38.785156 24.8125 39.03125 24.714844 C 39.808594 24.414062 40.359375 23.871094 40.722656 23.125 C 40.820312 22.929688 40.863281 22.761719 40.644531 22.601562 C 40.402344 22.421875 40.308594 22.628906 40.1875 22.75 C 39.65625 23.285156 39.050781 23.765625 38.296875 23.800781 C 37.121094 23.855469 36.226562 24.410156 35.367188 25.121094 C 34.394531 25.925781 33.328125 26.464844 32.003906 26.082031 C 33.492188 26.976562 34.832031 26.625 36.148438 25.523438 Z M 30.804688 19.011719 C 30.429688 19.222656 30.3125 19.503906 30.140625 19.722656 C 29.730469 20.265625 29.804688 21.605469 30.34375 21.972656 C 30.609375 22.152344 30.535156 22.269531 30.507812 22.4375 C 30.382812 23.179688 30.65625 23.710938 31.296875 24.105469 C 32.027344 24.554688 32.820312 24.777344 33.664062 24.820312 C 34.007812 24.839844 34.339844 24.773438 34.585938 24.515625 C 33.835938 24.109375 33.007812 23.882812 32.355469 23.328125 C 31.871094 22.917969 31.46875 22.460938 31.488281 21.765625 C 31.496094 21.601562 31.421875 21.449219 31.328125 21.324219 C 30.8125 20.667969 30.585938 19.9375 30.804688 19.011719 Z M 34.164062 16.972656 C 33.414062 16.617188 32.71875 16.726562 32.039062 17.035156 C 31.675781 17.199219 31.445312 17.5 31.386719 17.894531 C 31.265625 18.703125 31.429688 19.464844 31.792969 20.195312 C 31.871094 20.355469 32.09375 20.371094 32.105469 20.582031 C 32.109375 20.726562 32.140625 20.988281 32.3125 20.890625 C 32.488281 20.789062 32.90625 20.761719 32.722656 20.328125 C 32.578125 19.984375 32.457031 19.628906 32.363281 19.265625 C 32.160156 18.464844 32.417969 17.867188 33.113281 17.414062 C 33.425781 17.207031 33.785156 17.101562 34.164062 16.972656 Z M 38.226562 22.402344 C 36.363281 22.128906 35.003906 20.761719 33.285156 20.199219 C 33.929688 20.707031 34.613281 21.148438 35.398438 21.382812 C 35.3125 21.589844 35.070312 21.414062 35.09375 21.578125 C 35.125 21.785156 35.09375 22.027344 35.40625 22.144531 C 35.835938 22.304688 36.238281 22.550781 36.695312 22.632812 C 37.21875 22.726562 37.746094 22.769531 38.226562 22.402344 Z M 35.191406 20.226562 C 35.746094 20.371094 36.230469 20.5 36.714844 20.628906 C 37.121094 20.738281 37.53125 20.808594 37.953125 20.773438 C 38.699219 20.707031 39.335938 20.132812 39.371094 19.492188 C 39.40625 18.851562 38.824219 18.160156 38.03125 18 C 38.328125 18.269531 38.546875 18.515625 38.679688 18.820312 C 39.070312 19.710938 38.605469 20.476562 37.636719 20.507812 C 37.382812 20.519531 37.121094 20.457031 36.867188 20.414062 C 36.347656 20.324219 35.835938 20.140625 35.191406 20.226562 Z M 34.410156 16.253906 C 34.585938 16.261719 34.703125 16.195312 34.710938 16.085938 C 34.71875 15.953125 34.613281 15.921875 34.519531 15.894531 C 33.628906 15.625 32.730469 15.496094 31.816406 15.753906 C 31.71875 15.78125 31.535156 15.792969 31.574219 15.941406 C 31.613281 16.089844 31.773438 16.070312 31.90625 16.027344 C 32.210938 15.929688 32.546875 15.851562 32.828125 16.011719 C 33.332031 16.304688 33.875 16.238281 34.410156 16.253906 Z M 36.5625 19.636719 C 36.984375 19.789062 37.390625 19.777344 37.714844 19.445312 C 37.949219 19.207031 37.972656 18.890625 37.855469 18.601562 C 37.71875 18.257812 37.398438 18.171875 36.964844 18.148438 C 37.433594 18.367188 37.6875 18.652344 37.570312 19.097656 C 37.4375 19.609375 36.988281 19.609375 36.5625 19.636719 Z M 33.335938 39.160156 C 33.433594 38.386719 33.296875 37.636719 33.011719 36.910156 C 32.621094 35.914062 31.671875 35.511719 30.890625 34.933594 C 30.824219 34.882812 30.683594 34.847656 30.652344 34.917969 C 30.433594 35.453125 30.144531 35.039062 29.878906 34.988281 C 29.671875 34.953125 29.332031 34.785156 29.285156 34.96875 C 29.175781 35.394531 28.914062 35.214844 28.699219 35.210938 C 28.394531 35.210938 28.09375 35.246094 27.800781 35.324219 C 26.8125 35.589844 25.839844 36.019531 24.777344 35.53125 C 25.128906 36.128906 25.453125 36.707031 25.9375 37.167969 C 26.019531 37.242188 26.175781 37.324219 26.136719 37.429688 C 25.972656 37.839844 26.3125 37.984375 26.507812 38.210938 C 27.113281 38.925781 28.046875 39.167969 28.757812 39.78125 C 29.414062 40.351562 30.449219 40.375 31.359375 40.039062 C 31.761719 39.890625 32.082031 39.632812 32.308594 39.132812 C 31.878906 39.25 31.5625 39.472656 31.175781 39.324219 C 31.28125 39.179688 31.371094 39.066406 31.449219 38.949219 C 31.511719 38.851562 31.613281 38.730469 31.539062 38.632812 C 31.429688 38.484375 31.304688 38.636719 31.203125 38.6875 C 30.625 38.960938 30.039062 38.90625 29.445312 38.742188 C 29.9375 38.640625 30.445312 38.613281 30.898438 38.378906 C 30.984375 38.332031 31.109375 38.316406 31.113281 38.195312 C 31.113281 38.074219 30.988281 38.042969 30.90625 37.996094 C 30.191406 37.582031 29.449219 37.242188 28.628906 37.097656 C 28.066406 36.996094 27.503906 36.890625 26.9375 36.785156 C 27.503906 36.796875 28.054688 36.863281 28.601562 36.984375 C 29.222656 37.121094 29.828125 37.328125 30.441406 37.441406 C 30.742188 37.496094 30.96875 37.601562 31.21875 37.730469 C 31.71875 37.988281 32.191406 38.292969 32.617188 38.664062 C 32.84375 38.859375 32.972656 38.902344 32.957031 38.417969 C 33.074219 38.75 33.148438 38.964844 33.222656 39.175781 C 33.261719 39.171875 33.296875 39.167969 33.335938 39.160156 Z M 38.226562 43.730469 C 38.667969 43.851562 39.113281 43.789062 39.550781 43.695312 C 40.691406 43.449219 41.492188 42.652344 42.34375 41.933594 C 42.386719 41.898438 42.414062 41.84375 42.4375 41.792969 C 42.460938 41.742188 42.5 41.65625 42.480469 41.632812 C 42.285156 41.433594 42.488281 41.335938 42.585938 41.21875 C 43.011719 40.71875 43.304688 40.140625 43.644531 39.5 C 42.328125 39.953125 42.207031 39.96875 41.214844 39.792969 C 40.5625 39.675781 39.910156 39.5625 39.246094 39.691406 C 39.179688 39.703125 39.070312 39.703125 39.042969 39.667969 C 38.71875 39.226562 38.445312 39.574219 38.160156 39.714844 C 38.050781 39.769531 37.984375 39.953125 37.839844 39.875 C 37.617188 39.757812 37.480469 39.902344 37.332031 40 C 36.621094 40.484375 36.320312 41.195312 36.289062 42.027344 C 36.265625 42.648438 36.363281 42.695312 36.902344 42.394531 C 37.003906 42.339844 37.109375 42.300781 37.214844 42.257812 C 37.433594 42.089844 37.671875 41.957031 38.054688 41.886719 C 37.730469 42.320312 37.367188 42.542969 37.019531 42.78125 C 37.242188 43.328125 37.691406 43.578125 38.226562 43.730469 Z M 36.425781 35.726562 C 36.320312 35.917969 36.632812 35.878906 36.558594 35.980469 C 36.480469 36.09375 36.320312 36.140625 36.261719 36.28125 C 36.214844 36.386719 36.152344 36.496094 36.257812 36.601562 C 36.363281 36.707031 36.484375 36.695312 36.621094 36.671875 C 37.492188 36.507812 38.015625 35.433594 37.800781 34.578125 C 37.609375 33.835938 37.078125 33.050781 37.746094 32.269531 C 37.597656 32.195312 37.496094 32.273438 37.40625 32.328125 C 36.574219 32.851562 35.796875 33.425781 35.414062 34.386719 C 35.382812 34.464844 35.355469 34.554688 35.300781 34.617188 C 34.863281 35.136719 34.910156 35.816406 35.425781 36.234375 C 35.648438 36.414062 35.796875 36.332031 35.855469 36.070312 C 35.875 35.988281 35.882812 35.90625 35.894531 35.824219 C 36.425781 36.046875 36.277344 35.472656 36.53125 35.300781 C 36.496094 35.460938 36.492188 35.613281 36.425781 35.726562 Z M 36.425781 35.726562 " fill-opacity="1" fill-rule="nonzero"/></g><g fill="#235959" fill-opacity="1"><g transform="translate(69.337994, 39.274044)"><g><path d="M 0.609375 0 L 0.609375 -0.609375 C 1.023438 -0.617188 1.359375 -0.648438 1.609375 -0.703125 C 1.859375 -0.753906 2.046875 -0.84375 2.171875 -0.96875 C 2.304688 -1.101562 2.398438 -1.285156 2.453125 -1.515625 C 2.503906 -1.753906 2.53125 -2.054688 2.53125 -2.421875 L 2.53125 -9.875 C 2.53125 -10.25 2.507812 -10.550781 2.46875 -10.78125 C 2.425781 -11.007812 2.347656 -11.191406 2.234375 -11.328125 C 2.128906 -11.460938 1.96875 -11.550781 1.75 -11.59375 C 1.539062 -11.644531 1.265625 -11.679688 0.921875 -11.703125 L 0.921875 -12.3125 L 5.703125 -12.3125 C 7.140625 -12.3125 8.257812 -12.050781 9.0625 -11.53125 C 9.863281 -11.019531 10.265625 -10.300781 10.265625 -9.375 C 10.265625 -8.675781 10.039062 -8.101562 9.59375 -7.65625 C 9.15625 -7.207031 8.457031 -6.835938 7.5 -6.546875 L 7.5 -6.484375 C 7.820312 -6.453125 8.109375 -6.414062 8.359375 -6.375 C 8.609375 -6.332031 8.828125 -6.28125 9.015625 -6.21875 C 9.203125 -6.164062 9.378906 -6.09375 9.546875 -6 C 9.710938 -5.914062 9.875 -5.820312 10.03125 -5.71875 C 10.976562 -5.050781 11.453125 -4.210938 11.453125 -3.203125 C 11.453125 -2.628906 11.296875 -2.097656 10.984375 -1.609375 C 10.671875 -1.128906 10.234375 -0.753906 9.671875 -0.484375 C 9.492188 -0.378906 9.304688 -0.296875 9.109375 -0.234375 C 8.921875 -0.179688 8.695312 -0.132812 8.4375 -0.09375 C 8.1875 -0.0625 7.890625 -0.0351562 7.546875 -0.015625 C 7.210938 -0.00390625 6.816406 0 6.359375 0 Z M 6.40625 -0.6875 C 8.332031 -0.6875 9.296875 -1.515625 9.296875 -3.171875 C 9.296875 -4.367188 8.800781 -5.207031 7.8125 -5.6875 C 7.644531 -5.757812 7.476562 -5.820312 7.3125 -5.875 C 7.15625 -5.9375 6.96875 -5.976562 6.75 -6 C 6.539062 -6.03125 6.289062 -6.050781 6 -6.0625 C 5.707031 -6.070312 5.347656 -6.078125 4.921875 -6.078125 L 4.203125 -6.078125 L 4.203125 -2.515625 C 4.203125 -1.859375 4.375 -1.390625 4.71875 -1.109375 C 5.0625 -0.828125 5.625 -0.6875 6.40625 -0.6875 Z M 5.09375 -6.875 C 5.425781 -6.875 5.703125 -6.878906 5.921875 -6.890625 C 6.148438 -6.898438 6.34375 -6.914062 6.5 -6.9375 C 6.664062 -6.96875 6.804688 -7.003906 6.921875 -7.046875 C 7.046875 -7.097656 7.175781 -7.164062 7.3125 -7.25 C 7.644531 -7.46875 7.882812 -7.722656 8.03125 -8.015625 C 8.175781 -8.316406 8.25 -8.707031 8.25 -9.1875 C 8.25 -10.03125 8.039062 -10.632812 7.625 -11 C 7.21875 -11.375 6.578125 -11.5625 5.703125 -11.5625 L 4.46875 -11.5625 C 4.289062 -11.5625 4.203125 -11.46875 4.203125 -11.28125 L 4.203125 -6.875 Z M 5.09375 -6.875 "/></g></g></g><g fill="#235959" fill-opacity="1"><g transform="translate(81.6005, 39.274044)"><g><path d="M 3.34375 -2.5 C 3.34375 -2.09375 3.359375 -1.765625 3.390625 -1.515625 C 3.421875 -1.273438 3.484375 -1.082031 3.578125 -0.9375 C 3.679688 -0.800781 3.828125 -0.707031 4.015625 -0.65625 C 4.203125 -0.601562 4.453125 -0.570312 4.765625 -0.5625 L 4.765625 0 L 0.359375 0 L 0.359375 -0.5625 C 0.671875 -0.570312 0.921875 -0.601562 1.109375 -0.65625 C 1.304688 -0.71875 1.460938 -0.8125 1.578125 -0.9375 C 1.691406 -1.070312 1.765625 -1.253906 1.796875 -1.484375 C 1.835938 -1.710938 1.859375 -2.007812 1.859375 -2.375 L 1.859375 -9.265625 C 1.859375 -9.847656 1.847656 -10.332031 1.828125 -10.71875 C 1.816406 -11.101562 1.796875 -11.367188 1.765625 -11.515625 C 1.703125 -11.753906 1.570312 -11.914062 1.375 -12 C 1.1875 -12.082031 0.832031 -12.125 0.3125 -12.125 L 0.3125 -12.671875 L 3.34375 -13.265625 Z M 3.34375 -2.5 "/></g></g></g><g fill="#235959" fill-opacity="1"><g transform="translate(86.79648, 39.274044)"><g><path d="M 5.1875 -8.625 C 5.800781 -8.625 6.378906 -8.515625 6.921875 -8.296875 C 7.460938 -8.078125 7.9375 -7.773438 8.34375 -7.390625 C 8.757812 -7.015625 9.085938 -6.5625 9.328125 -6.03125 C 9.566406 -5.507812 9.6875 -4.929688 9.6875 -4.296875 C 9.6875 -3.648438 9.566406 -3.050781 9.328125 -2.5 C 9.085938 -1.957031 8.757812 -1.488281 8.34375 -1.09375 C 7.9375 -0.707031 7.460938 -0.398438 6.921875 -0.171875 C 6.378906 0.046875 5.800781 0.15625 5.1875 0.15625 C 4.59375 0.15625 4.023438 0.046875 3.484375 -0.171875 C 2.953125 -0.390625 2.484375 -0.691406 2.078125 -1.078125 C 1.671875 -1.472656 1.347656 -1.945312 1.109375 -2.5 C 0.878906 -3.050781 0.765625 -3.648438 0.765625 -4.296875 C 0.765625 -4.929688 0.878906 -5.515625 1.109375 -6.046875 C 1.347656 -6.578125 1.671875 -7.03125 2.078125 -7.40625 C 2.484375 -7.789062 2.953125 -8.085938 3.484375 -8.296875 C 4.023438 -8.515625 4.59375 -8.625 5.1875 -8.625 Z M 5.1875 -7.859375 C 4.800781 -7.859375 4.441406 -7.773438 4.109375 -7.609375 C 3.785156 -7.441406 3.507812 -7.195312 3.28125 -6.875 C 3.050781 -6.5625 2.875 -6.179688 2.75 -5.734375 C 2.632812 -5.296875 2.578125 -4.8125 2.578125 -4.28125 C 2.578125 -3.726562 2.632812 -3.226562 2.75 -2.78125 C 2.875 -2.332031 3.050781 -1.953125 3.28125 -1.640625 C 3.507812 -1.328125 3.785156 -1.082031 4.109375 -0.90625 C 4.429688 -0.738281 4.789062 -0.65625 5.1875 -0.65625 C 5.59375 -0.65625 5.960938 -0.738281 6.296875 -0.90625 C 6.628906 -1.082031 6.910156 -1.328125 7.140625 -1.640625 C 7.378906 -1.960938 7.5625 -2.347656 7.6875 -2.796875 C 7.8125 -3.242188 7.875 -3.738281 7.875 -4.28125 C 7.875 -4.8125 7.8125 -5.296875 7.6875 -5.734375 C 7.5625 -6.171875 7.378906 -6.546875 7.140625 -6.859375 C 6.910156 -7.179688 6.628906 -7.425781 6.296875 -7.59375 C 5.960938 -7.769531 5.59375 -7.859375 5.1875 -7.859375 Z M 5.1875 -7.859375 "/></g></g></g><g fill="#235959" fill-opacity="1"><g transform="translate(97.252391, 39.274044)"><g><path d="M 1.375 0 L 1.015625 0 L 1.015625 -2.75 L 1.421875 -2.75 C 1.835938 -1.25 2.59375 -0.5 3.6875 -0.5 C 4.113281 -0.5 4.453125 -0.601562 4.703125 -0.8125 C 4.953125 -1.019531 5.078125 -1.335938 5.078125 -1.765625 C 5.078125 -1.921875 5.050781 -2.050781 5 -2.15625 C 4.957031 -2.269531 4.867188 -2.390625 4.734375 -2.515625 C 4.609375 -2.640625 4.421875 -2.78125 4.171875 -2.9375 C 3.929688 -3.101562 3.617188 -3.304688 3.234375 -3.546875 C 2.867188 -3.773438 2.550781 -3.984375 2.28125 -4.171875 C 2.019531 -4.359375 1.796875 -4.550781 1.609375 -4.75 C 1.429688 -4.945312 1.296875 -5.15625 1.203125 -5.375 C 1.117188 -5.601562 1.078125 -5.867188 1.078125 -6.171875 C 1.078125 -6.535156 1.132812 -6.867188 1.25 -7.171875 C 1.375 -7.472656 1.539062 -7.726562 1.75 -7.9375 C 1.96875 -8.15625 2.21875 -8.320312 2.5 -8.4375 C 2.789062 -8.5625 3.109375 -8.625 3.453125 -8.625 C 3.742188 -8.625 4.039062 -8.578125 4.34375 -8.484375 C 4.65625 -8.398438 4.925781 -8.285156 5.15625 -8.140625 L 5.484375 -8.46875 L 5.78125 -8.46875 L 5.78125 -6.171875 L 5.375 -6.171875 C 5.132812 -6.816406 4.875 -7.273438 4.59375 -7.546875 C 4.320312 -7.828125 3.984375 -7.96875 3.578125 -7.96875 C 3.210938 -7.96875 2.921875 -7.875 2.703125 -7.6875 C 2.484375 -7.5 2.375 -7.234375 2.375 -6.890625 C 2.375 -6.710938 2.40625 -6.554688 2.46875 -6.421875 C 2.53125 -6.285156 2.625 -6.148438 2.75 -6.015625 C 2.875 -5.890625 3.035156 -5.757812 3.234375 -5.625 C 3.429688 -5.5 3.671875 -5.347656 3.953125 -5.171875 C 4.410156 -4.890625 4.800781 -4.632812 5.125 -4.40625 C 5.445312 -4.1875 5.707031 -3.96875 5.90625 -3.75 C 6.113281 -3.53125 6.265625 -3.300781 6.359375 -3.0625 C 6.453125 -2.832031 6.5 -2.566406 6.5 -2.265625 C 6.5 -1.515625 6.253906 -0.921875 5.765625 -0.484375 C 5.273438 -0.0546875 4.632812 0.15625 3.84375 0.15625 C 3.007812 0.15625 2.289062 -0.0820312 1.6875 -0.5625 Z M 1.375 0 "/></g></g></g><g fill="#235959" fill-opacity="1"><g transform="translate(104.510777, 39.274044)"><g><path d="M 1.375 0 L 1.015625 0 L 1.015625 -2.75 L 1.421875 -2.75 C 1.835938 -1.25 2.59375 -0.5 3.6875 -0.5 C 4.113281 -0.5 4.453125 -0.601562 4.703125 -0.8125 C 4.953125 -1.019531 5.078125 -1.335938 5.078125 -1.765625 C 5.078125 -1.921875 5.050781 -2.050781 5 -2.15625 C 4.957031 -2.269531 4.867188 -2.390625 4.734375 -2.515625 C 4.609375 -2.640625 4.421875 -2.78125 4.171875 -2.9375 C 3.929688 -3.101562 3.617188 -3.304688 3.234375 -3.546875 C 2.867188 -3.773438 2.550781 -3.984375 2.28125 -4.171875 C 2.019531 -4.359375 1.796875 -4.550781 1.609375 -4.75 C 1.429688 -4.945312 1.296875 -5.15625 1.203125 -5.375 C 1.117188 -5.601562 1.078125 -5.867188 1.078125 -6.171875 C 1.078125 -6.535156 1.132812 -6.867188 1.25 -7.171875 C 1.375 -7.472656 1.539062 -7.726562 1.75 -7.9375 C 1.96875 -8.15625 2.21875 -8.320312 2.5 -8.4375 C 2.789062 -8.5625 3.109375 -8.625 3.453125 -8.625 C 3.742188 -8.625 4.039062 -8.578125 4.34375 -8.484375 C 4.65625 -8.398438 4.925781 -8.285156 5.15625 -8.140625 L 5.484375 -8.46875 L 5.78125 -8.46875 L 5.78125 -6.171875 L 5.375 -6.171875 C 5.132812 -6.816406 4.875 -7.273438 4.59375 -7.546875 C 4.320312 -7.828125 3.984375 -7.96875 3.578125 -7.96875 C 3.210938 -7.96875 2.921875 -7.875 2.703125 -7.6875 C 2.484375 -7.5 2.375 -7.234375 2.375 -6.890625 C 2.375 -6.710938 2.40625 -6.554688 2.46875 -6.421875 C 2.53125 -6.285156 2.625 -6.148438 2.75 -6.015625 C 2.875 -5.890625 3.035156 -5.757812 3.234375 -5.625 C 3.429688 -5.5 3.671875 -5.347656 3.953125 -5.171875 C 4.410156 -4.890625 4.800781 -4.632812 5.125 -4.40625 C 5.445312 -4.1875 5.707031 -3.96875 5.90625 -3.75 C 6.113281 -3.53125 6.265625 -3.300781 6.359375 -3.0625 C 6.453125 -2.832031 6.5 -2.566406 6.5 -2.265625 C 6.5 -1.515625 6.253906 -0.921875 5.765625 -0.484375 C 5.273438 -0.0546875 4.632812 0.15625 3.84375 0.15625 C 3.007812 0.15625 2.289062 -0.0820312 1.6875 -0.5625 Z M 1.375 0 "/></g></g></g><g fill="#235959" fill-opacity="1"><g transform="translate(111.769164, 39.274044)"><g><path d="M 5.1875 -8.625 C 5.800781 -8.625 6.378906 -8.515625 6.921875 -8.296875 C 7.460938 -8.078125 7.9375 -7.773438 8.34375 -7.390625 C 8.757812 -7.015625 9.085938 -6.5625 9.328125 -6.03125 C 9.566406 -5.507812 9.6875 -4.929688 9.6875 -4.296875 C 9.6875 -3.648438 9.566406 -3.050781 9.328125 -2.5 C 9.085938 -1.957031 8.757812 -1.488281 8.34375 -1.09375 C 7.9375 -0.707031 7.460938 -0.398438 6.921875 -0.171875 C 6.378906 0.046875 5.800781 0.15625 5.1875 0.15625 C 4.59375 0.15625 4.023438 0.046875 3.484375 -0.171875 C 2.953125 -0.390625 2.484375 -0.691406 2.078125 -1.078125 C 1.671875 -1.472656 1.347656 -1.945312 1.109375 -2.5 C 0.878906 -3.050781 0.765625 -3.648438 0.765625 -4.296875 C 0.765625 -4.929688 0.878906 -5.515625 1.109375 -6.046875 C 1.347656 -6.578125 1.671875 -7.03125 2.078125 -7.40625 C 2.484375 -7.789062 2.953125 -8.085938 3.484375 -8.296875 C 4.023438 -8.515625 4.59375 -8.625 5.1875 -8.625 Z M 5.1875 -7.859375 C 4.800781 -7.859375 4.441406 -7.773438 4.109375 -7.609375 C 3.785156 -7.441406 3.507812 -7.195312 3.28125 -6.875 C 3.050781 -6.5625 2.875 -6.179688 2.75 -5.734375 C 2.632812 -5.296875 2.578125 -4.8125 2.578125 -4.28125 C 2.578125 -3.726562 2.632812 -3.226562 2.75 -2.78125 C 2.875 -2.332031 3.050781 -1.953125 3.28125 -1.640625 C 3.507812 -1.328125 3.785156 -1.082031 4.109375 -0.90625 C 4.429688 -0.738281 4.789062 -0.65625 5.1875 -0.65625 C 5.59375 -0.65625 5.960938 -0.738281 6.296875 -0.90625 C 6.628906 -1.082031 6.910156 -1.328125 7.140625 -1.640625 C 7.378906 -1.960938 7.5625 -2.347656 7.6875 -2.796875 C 7.8125 -3.242188 7.875 -3.738281 7.875 -4.28125 C 7.875 -4.8125 7.8125 -5.296875 7.6875 -5.734375 C 7.5625 -6.171875 7.378906 -6.546875 7.140625 -6.859375 C 6.910156 -7.179688 6.628906 -7.425781 6.296875 -7.59375 C 5.960938 -7.769531 5.59375 -7.859375 5.1875 -7.859375 Z M 5.1875 -7.859375 "/></g></g></g><g fill="#235959" fill-opacity="1"><g transform="translate(122.225074, 39.274044)"><g><path d="M 3.53125 -2.5625 C 3.53125 -2.113281 3.539062 -1.757812 3.5625 -1.5 C 3.582031 -1.25 3.640625 -1.054688 3.734375 -0.921875 C 3.828125 -0.785156 3.957031 -0.695312 4.125 -0.65625 C 4.289062 -0.613281 4.53125 -0.582031 4.84375 -0.5625 L 4.84375 0 L 0.59375 0 L 0.59375 -0.5625 C 0.90625 -0.582031 1.148438 -0.613281 1.328125 -0.65625 C 1.503906 -0.695312 1.640625 -0.78125 1.734375 -0.90625 C 1.835938 -1.039062 1.898438 -1.226562 1.921875 -1.46875 C 1.953125 -1.707031 1.96875 -2.023438 1.96875 -2.421875 L 1.96875 -4.46875 C 1.96875 -5.082031 1.957031 -5.585938 1.9375 -5.984375 C 1.925781 -6.390625 1.898438 -6.671875 1.859375 -6.828125 C 1.828125 -6.960938 1.785156 -7.066406 1.734375 -7.140625 C 1.691406 -7.222656 1.625 -7.289062 1.53125 -7.34375 C 1.4375 -7.394531 1.3125 -7.425781 1.15625 -7.4375 C 1 -7.457031 0.800781 -7.46875 0.5625 -7.46875 L 0.5625 -8.03125 L 3.171875 -8.625 L 3.375 -7.03125 L 3.453125 -7.03125 C 3.929688 -7.570312 4.429688 -7.972656 4.953125 -8.234375 C 5.484375 -8.492188 6.070312 -8.625 6.71875 -8.625 C 7.382812 -8.625 7.945312 -8.488281 8.40625 -8.21875 C 8.863281 -7.945312 9.179688 -7.554688 9.359375 -7.046875 L 9.4375 -7.046875 C 9.820312 -7.546875 10.296875 -7.929688 10.859375 -8.203125 C 11.429688 -8.484375 12.035156 -8.625 12.671875 -8.625 C 13.171875 -8.625 13.625 -8.539062 14.03125 -8.375 C 14.445312 -8.21875 14.765625 -7.992188 14.984375 -7.703125 C 15.171875 -7.460938 15.300781 -7.140625 15.375 -6.734375 C 15.457031 -6.335938 15.5 -5.789062 15.5 -5.09375 L 15.5 -2.5625 C 15.5 -2.125 15.507812 -1.773438 15.53125 -1.515625 C 15.5625 -1.265625 15.617188 -1.066406 15.703125 -0.921875 C 15.796875 -0.785156 15.929688 -0.695312 16.109375 -0.65625 C 16.285156 -0.613281 16.523438 -0.582031 16.828125 -0.5625 L 16.828125 0 L 12.578125 0 L 12.578125 -0.5625 C 12.878906 -0.570312 13.117188 -0.597656 13.296875 -0.640625 C 13.484375 -0.691406 13.625 -0.785156 13.71875 -0.921875 C 13.8125 -1.054688 13.867188 -1.238281 13.890625 -1.46875 C 13.921875 -1.707031 13.9375 -2.023438 13.9375 -2.421875 L 13.9375 -4.4375 C 13.9375 -5.050781 13.90625 -5.566406 13.84375 -5.984375 C 13.78125 -6.410156 13.671875 -6.753906 13.515625 -7.015625 C 13.367188 -7.273438 13.175781 -7.460938 12.9375 -7.578125 C 12.695312 -7.691406 12.40625 -7.75 12.0625 -7.75 C 11.59375 -7.75 11.15625 -7.617188 10.75 -7.359375 C 10.34375 -7.097656 10.019531 -6.75 9.78125 -6.3125 C 9.726562 -6.207031 9.679688 -6.101562 9.640625 -6 C 9.609375 -5.894531 9.582031 -5.78125 9.5625 -5.65625 C 9.539062 -5.539062 9.523438 -5.394531 9.515625 -5.21875 C 9.515625 -5.050781 9.515625 -4.84375 9.515625 -4.59375 L 9.515625 -2.5625 C 9.515625 -2.125 9.523438 -1.773438 9.546875 -1.515625 C 9.566406 -1.265625 9.617188 -1.066406 9.703125 -0.921875 C 9.796875 -0.785156 9.929688 -0.695312 10.109375 -0.65625 C 10.296875 -0.613281 10.546875 -0.582031 10.859375 -0.5625 L 10.859375 0 L 6.59375 0 L 6.59375 -0.5625 C 6.894531 -0.582031 7.132812 -0.613281 7.3125 -0.65625 C 7.5 -0.695312 7.632812 -0.78125 7.71875 -0.90625 C 7.8125 -1.039062 7.867188 -1.226562 7.890625 -1.46875 C 7.921875 -1.707031 7.9375 -2.023438 7.9375 -2.421875 L 7.9375 -4.4375 C 7.9375 -5.0625 7.90625 -5.582031 7.84375 -6 C 7.78125 -6.425781 7.675781 -6.769531 7.53125 -7.03125 C 7.394531 -7.289062 7.207031 -7.472656 6.96875 -7.578125 C 6.738281 -7.691406 6.453125 -7.75 6.109375 -7.75 C 5.628906 -7.75 5.175781 -7.617188 4.75 -7.359375 C 4.332031 -7.097656 4.015625 -6.75 3.796875 -6.3125 C 3.742188 -6.207031 3.695312 -6.101562 3.65625 -6 C 3.625 -5.894531 3.597656 -5.78125 3.578125 -5.65625 C 3.554688 -5.539062 3.539062 -5.394531 3.53125 -5.21875 C 3.53125 -5.050781 3.53125 -4.84375 3.53125 -4.59375 Z M 3.53125 -2.5625 "/></g></g></g><g fill="#235959" fill-opacity="1"><g transform="translate(139.379802, 39.274044)"><g/></g></g><g fill="#235959" fill-opacity="1"><g transform="translate(143.968254, 39.274044)"><g><path d="M 5.546875 -7.328125 C 6.054688 -7.710938 6.425781 -8.109375 6.65625 -8.515625 C 6.894531 -8.929688 7.015625 -9.378906 7.015625 -9.859375 C 7.015625 -10.359375 6.898438 -10.753906 6.671875 -11.046875 C 6.453125 -11.347656 6.15625 -11.5 5.78125 -11.5 C 5.082031 -11.5 4.734375 -10.957031 4.734375 -9.875 C 4.734375 -9.40625 4.800781 -8.953125 4.9375 -8.515625 C 5.070312 -8.085938 5.273438 -7.691406 5.546875 -7.328125 Z M 4.640625 -5.8125 C 3.960938 -5.4375 3.4375 -4.988281 3.0625 -4.46875 C 2.695312 -3.945312 2.515625 -3.410156 2.515625 -2.859375 C 2.515625 -2.273438 2.703125 -1.789062 3.078125 -1.40625 C 3.453125 -1.03125 3.941406 -0.84375 4.546875 -0.84375 C 4.984375 -0.84375 5.457031 -0.953125 5.96875 -1.171875 C 6.488281 -1.398438 6.976562 -1.71875 7.4375 -2.125 Z M 8.578125 -3.34375 C 8.835938 -3.65625 9.078125 -3.960938 9.296875 -4.265625 C 9.515625 -4.578125 9.703125 -4.867188 9.859375 -5.140625 C 10.023438 -5.410156 10.148438 -5.65625 10.234375 -5.875 C 10.316406 -6.101562 10.359375 -6.285156 10.359375 -6.421875 C 10.359375 -6.597656 10.28125 -6.722656 10.125 -6.796875 C 9.96875 -6.867188 9.71875 -6.90625 9.375 -6.90625 L 9.375 -7.46875 L 13.0625 -7.46875 L 13.0625 -6.90625 C 12.820312 -6.90625 12.617188 -6.890625 12.453125 -6.859375 C 12.296875 -6.835938 12.148438 -6.796875 12.015625 -6.734375 C 11.890625 -6.671875 11.769531 -6.582031 11.65625 -6.46875 C 11.550781 -6.363281 11.441406 -6.226562 11.328125 -6.0625 L 9.0625 -2.734375 C 9.507812 -2.128906 9.972656 -1.664062 10.453125 -1.34375 C 10.941406 -1.03125 11.425781 -0.875 11.90625 -0.875 C 12.039062 -0.875 12.160156 -0.882812 12.265625 -0.90625 C 12.378906 -0.9375 12.476562 -0.988281 12.5625 -1.0625 C 12.65625 -1.132812 12.742188 -1.226562 12.828125 -1.34375 C 12.910156 -1.457031 12.992188 -1.609375 13.078125 -1.796875 L 13.46875 -1.671875 C 13.351562 -1.078125 13.09375 -0.625 12.6875 -0.3125 C 12.28125 0 11.753906 0.15625 11.109375 0.15625 C 10.835938 0.15625 10.582031 0.125 10.34375 0.0625 C 10.101562 0.0078125 9.859375 -0.0820312 9.609375 -0.21875 C 9.367188 -0.363281 9.109375 -0.546875 8.828125 -0.765625 C 8.554688 -0.992188 8.253906 -1.269531 7.921875 -1.59375 C 7.390625 -1.039062 6.773438 -0.609375 6.078125 -0.296875 C 5.378906 0.00390625 4.671875 0.15625 3.953125 0.15625 C 3.460938 0.15625 3.007812 0.0859375 2.59375 -0.046875 C 2.1875 -0.191406 1.832031 -0.390625 1.53125 -0.640625 C 1.238281 -0.890625 1.003906 -1.1875 0.828125 -1.53125 C 0.660156 -1.882812 0.578125 -2.265625 0.578125 -2.671875 C 0.578125 -3.390625 0.863281 -4.054688 1.4375 -4.671875 C 2.007812 -5.285156 2.929688 -5.898438 4.203125 -6.515625 C 3.859375 -7.015625 3.609375 -7.484375 3.453125 -7.921875 C 3.304688 -8.359375 3.234375 -8.816406 3.234375 -9.296875 C 3.234375 -9.765625 3.296875 -10.191406 3.421875 -10.578125 C 3.554688 -10.972656 3.742188 -11.304688 3.984375 -11.578125 C 4.234375 -11.859375 4.53125 -12.078125 4.875 -12.234375 C 5.21875 -12.390625 5.597656 -12.46875 6.015625 -12.46875 C 6.367188 -12.46875 6.695312 -12.40625 7 -12.28125 C 7.3125 -12.164062 7.578125 -12.003906 7.796875 -11.796875 C 8.023438 -11.585938 8.195312 -11.335938 8.3125 -11.046875 C 8.4375 -10.753906 8.5 -10.4375 8.5 -10.09375 C 8.5 -9.488281 8.304688 -8.925781 7.921875 -8.40625 C 7.535156 -7.882812 6.894531 -7.320312 6 -6.71875 Z M 8.578125 -3.34375 "/></g></g></g><g fill="#235959" fill-opacity="1"><g transform="translate(158.005386, 39.274044)"><g/></g></g><g fill="#235959" fill-opacity="1"><g transform="translate(162.593838, 39.274044)"><g><path d="M 0.609375 0 L 0.609375 -0.609375 C 1.023438 -0.617188 1.359375 -0.648438 1.609375 -0.703125 C 1.859375 -0.753906 2.046875 -0.84375 2.171875 -0.96875 C 2.304688 -1.101562 2.398438 -1.285156 2.453125 -1.515625 C 2.503906 -1.753906 2.53125 -2.054688 2.53125 -2.421875 L 2.53125 -9.875 C 2.53125 -10.25 2.507812 -10.550781 2.46875 -10.78125 C 2.425781 -11.007812 2.347656 -11.191406 2.234375 -11.328125 C 2.128906 -11.460938 1.96875 -11.550781 1.75 -11.59375 C 1.539062 -11.644531 1.265625 -11.679688 0.921875 -11.703125 L 0.921875 -12.3125 L 5.703125 -12.3125 C 7.140625 -12.3125 8.257812 -12.050781 9.0625 -11.53125 C 9.863281 -11.019531 10.265625 -10.300781 10.265625 -9.375 C 10.265625 -8.675781 10.039062 -8.101562 9.59375 -7.65625 C 9.15625 -7.207031 8.457031 -6.835938 7.5 -6.546875 L 7.5 -6.484375 C 7.820312 -6.453125 8.109375 -6.414062 8.359375 -6.375 C 8.609375 -6.332031 8.828125 -6.28125 9.015625 -6.21875 C 9.203125 -6.164062 9.378906 -6.09375 9.546875 -6 C 9.710938 -5.914062 9.875 -5.820312 10.03125 -5.71875 C 10.976562 -5.050781 11.453125 -4.210938 11.453125 -3.203125 C 11.453125 -2.628906 11.296875 -2.097656 10.984375 -1.609375 C 10.671875 -1.128906 10.234375 -0.753906 9.671875 -0.484375 C 9.492188 -0.378906 9.304688 -0.296875 9.109375 -0.234375 C 8.921875 -0.179688 8.695312 -0.132812 8.4375 -0.09375 C 8.1875 -0.0625 7.890625 -0.0351562 7.546875 -0.015625 C 7.210938 -0.00390625 6.816406 0 6.359375 0 Z M 6.40625 -0.6875 C 8.332031 -0.6875 9.296875 -1.515625 9.296875 -3.171875 C 9.296875 -4.367188 8.800781 -5.207031 7.8125 -5.6875 C 7.644531 -5.757812 7.476562 -5.820312 7.3125 -5.875 C 7.15625 -5.9375 6.96875 -5.976562 6.75 -6 C 6.539062 -6.03125 6.289062 -6.050781 6 -6.0625 C 5.707031 -6.070312 5.347656 -6.078125 4.921875 -6.078125 L 4.203125 -6.078125 L 4.203125 -2.515625 C 4.203125 -1.859375 4.375 -1.390625 4.71875 -1.109375 C 5.0625 -0.828125 5.625 -0.6875 6.40625 -0.6875 Z M 5.09375 -6.875 C 5.425781 -6.875 5.703125 -6.878906 5.921875 -6.890625 C 6.148438 -6.898438 6.34375 -6.914062 6.5 -6.9375 C 6.664062 -6.96875 6.804688 -7.003906 6.921875 -7.046875 C 7.046875 -7.097656 7.175781 -7.164062 7.3125 -7.25 C 7.644531 -7.46875 7.882812 -7.722656 8.03125 -8.015625 C 8.175781 -8.316406 8.25 -8.707031 8.25 -9.1875 C 8.25 -10.03125 8.039062 -10.632812 7.625 -11 C 7.21875 -11.375 6.578125 -11.5625 5.703125 -11.5625 L 4.46875 -11.5625 C 4.289062 -11.5625 4.203125 -11.46875 4.203125 -11.28125 L 4.203125 -6.875 Z M 5.09375 -6.875 "/></g></g></g><g fill="#235959" fill-opacity="1"><g transform="translate(174.856344, 39.274044)"><g><path d="M 5.1875 -8.625 C 5.800781 -8.625 6.378906 -8.515625 6.921875 -8.296875 C 7.460938 -8.078125 7.9375 -7.773438 8.34375 -7.390625 C 8.757812 -7.015625 9.085938 -6.5625 9.328125 -6.03125 C 9.566406 -5.507812 9.6875 -4.929688 9.6875 -4.296875 C 9.6875 -3.648438 9.566406 -3.050781 9.328125 -2.5 C 9.085938 -1.957031 8.757812 -1.488281 8.34375 -1.09375 C 7.9375 -0.707031 7.460938 -0.398438 6.921875 -0.171875 C 6.378906 0.046875 5.800781 0.15625 5.1875 0.15625 C 4.59375 0.15625 4.023438 0.046875 3.484375 -0.171875 C 2.953125 -0.390625 2.484375 -0.691406 2.078125 -1.078125 C 1.671875 -1.472656 1.347656 -1.945312 1.109375 -2.5 C 0.878906 -3.050781 0.765625 -3.648438 0.765625 -4.296875 C 0.765625 -4.929688 0.878906 -5.515625 1.109375 -6.046875 C 1.347656 -6.578125 1.671875 -7.03125 2.078125 -7.40625 C 2.484375 -7.789062 2.953125 -8.085938 3.484375 -8.296875 C 4.023438 -8.515625 4.59375 -8.625 5.1875 -8.625 Z M 5.1875 -7.859375 C 4.800781 -7.859375 4.441406 -7.773438 4.109375 -7.609375 C 3.785156 -7.441406 3.507812 -7.195312 3.28125 -6.875 C 3.050781 -6.5625 2.875 -6.179688 2.75 -5.734375 C 2.632812 -5.296875 2.578125 -4.8125 2.578125 -4.28125 C 2.578125 -3.726562 2.632812 -3.226562 2.75 -2.78125 C 2.875 -2.332031 3.050781 -1.953125 3.28125 -1.640625 C 3.507812 -1.328125 3.785156 -1.082031 4.109375 -0.90625 C 4.429688 -0.738281 4.789062 -0.65625 5.1875 -0.65625 C 5.59375 -0.65625 5.960938 -0.738281 6.296875 -0.90625 C 6.628906 -1.082031 6.910156 -1.328125 7.140625 -1.640625 C 7.378906 -1.960938 7.5625 -2.347656 7.6875 -2.796875 C 7.8125 -3.242188 7.875 -3.738281 7.875 -4.28125 C 7.875 -4.8125 7.8125 -5.296875 7.6875 -5.734375 C 7.5625 -6.171875 7.378906 -6.546875 7.140625 -6.859375 C 6.910156 -7.179688 6.628906 -7.425781 6.296875 -7.59375 C 5.960938 -7.769531 5.59375 -7.859375 5.1875 -7.859375 Z M 5.1875 -7.859375 "/></g></g></g><g fill="#235959" fill-opacity="1"><g transform="translate(185.312254, 39.274044)"><g><path d="M 5.1875 -8.625 C 5.800781 -8.625 6.378906 -8.515625 6.921875 -8.296875 C 7.460938 -8.078125 7.9375 -7.773438 8.34375 -7.390625 C 8.757812 -7.015625 9.085938 -6.5625 9.328125 -6.03125 C 9.566406 -5.507812 9.6875 -4.929688 9.6875 -4.296875 C 9.6875 -3.648438 9.566406 -3.050781 9.328125 -2.5 C 9.085938 -1.957031 8.757812 -1.488281 8.34375 -1.09375 C 7.9375 -0.707031 7.460938 -0.398438 6.921875 -0.171875 C 6.378906 0.046875 5.800781 0.15625 5.1875 0.15625 C 4.59375 0.15625 4.023438 0.046875 3.484375 -0.171875 C 2.953125 -0.390625 2.484375 -0.691406 2.078125 -1.078125 C 1.671875 -1.472656 1.347656 -1.945312 1.109375 -2.5 C 0.878906 -3.050781 0.765625 -3.648438 0.765625 -4.296875 C 0.765625 -4.929688 0.878906 -5.515625 1.109375 -6.046875 C 1.347656 -6.578125 1.671875 -7.03125 2.078125 -7.40625 C 2.484375 -7.789062 2.953125 -8.085938 3.484375 -8.296875 C 4.023438 -8.515625 4.59375 -8.625 5.1875 -8.625 Z M 5.1875 -7.859375 C 4.800781 -7.859375 4.441406 -7.773438 4.109375 -7.609375 C 3.785156 -7.441406 3.507812 -7.195312 3.28125 -6.875 C 3.050781 -6.5625 2.875 -6.179688 2.75 -5.734375 C 2.632812 -5.296875 2.578125 -4.8125 2.578125 -4.28125 C 2.578125 -3.726562 2.632812 -3.226562 2.75 -2.78125 C 2.875 -2.332031 3.050781 -1.953125 3.28125 -1.640625 C 3.507812 -1.328125 3.785156 -1.082031 4.109375 -0.90625 C 4.429688 -0.738281 4.789062 -0.65625 5.1875 -0.65625 C 5.59375 -0.65625 5.960938 -0.738281 6.296875 -0.90625 C 6.628906 -1.082031 6.910156 -1.328125 7.140625 -1.640625 C 7.378906 -1.960938 7.5625 -2.347656 7.6875 -2.796875 C 7.8125 -3.242188 7.875 -3.738281 7.875 -4.28125 C 7.875 -4.8125 7.8125 -5.296875 7.6875 -5.734375 C 7.5625 -6.171875 7.378906 -6.546875 7.140625 -6.859375 C 6.910156 -7.179688 6.628906 -7.425781 6.296875 -7.59375 C 5.960938 -7.769531 5.59375 -7.859375 5.1875 -7.859375 Z M 5.1875 -7.859375 "/></g></g></g><g fill="#235959" fill-opacity="1"><g transform="translate(195.768165, 39.274044)"><g><path d="M 5.5625 -0.5625 C 5.914062 -0.5625 6.15625 -0.578125 6.28125 -0.609375 C 6.414062 -0.640625 6.484375 -0.679688 6.484375 -0.734375 C 6.472656 -0.816406 6.390625 -0.96875 6.234375 -1.1875 C 6.078125 -1.414062 5.867188 -1.6875 5.609375 -2 L 3.921875 -4.046875 L 3.328125 -3.484375 L 3.328125 -2.546875 C 3.328125 -2.128906 3.34375 -1.796875 3.375 -1.546875 C 3.414062 -1.296875 3.484375 -1.097656 3.578125 -0.953125 C 3.679688 -0.804688 3.832031 -0.707031 4.03125 -0.65625 C 4.226562 -0.601562 4.488281 -0.570312 4.8125 -0.5625 L 4.8125 0 L 0.265625 0 L 0.265625 -0.5625 C 0.585938 -0.570312 0.847656 -0.601562 1.046875 -0.65625 C 1.242188 -0.707031 1.394531 -0.800781 1.5 -0.9375 C 1.613281 -1.082031 1.691406 -1.269531 1.734375 -1.5 C 1.785156 -1.738281 1.8125 -2.046875 1.8125 -2.421875 L 1.8125 -9.125 C 1.8125 -9.9375 1.800781 -10.550781 1.78125 -10.96875 C 1.769531 -11.382812 1.710938 -11.664062 1.609375 -11.8125 C 1.515625 -11.957031 1.351562 -12.039062 1.125 -12.0625 C 0.90625 -12.09375 0.609375 -12.109375 0.234375 -12.109375 L 0.234375 -12.65625 L 3.328125 -13.265625 L 3.328125 -4.484375 L 4.8125 -5.953125 C 5.289062 -6.429688 5.644531 -6.785156 5.875 -7.015625 C 6.113281 -7.242188 6.234375 -7.414062 6.234375 -7.53125 C 6.234375 -7.644531 6.117188 -7.734375 5.890625 -7.796875 C 5.671875 -7.867188 5.351562 -7.90625 4.9375 -7.90625 L 4.9375 -8.46875 L 9.09375 -8.46875 L 9.09375 -7.90625 C 8.894531 -7.90625 8.71875 -7.894531 8.5625 -7.875 C 8.414062 -7.851562 8.273438 -7.8125 8.140625 -7.75 C 8.003906 -7.6875 7.863281 -7.597656 7.71875 -7.484375 C 7.570312 -7.378906 7.398438 -7.238281 7.203125 -7.0625 L 4.90625 -5.015625 L 8.078125 -1.4375 C 8.222656 -1.257812 8.351562 -1.113281 8.46875 -1 C 8.59375 -0.882812 8.71875 -0.796875 8.84375 -0.734375 C 8.96875 -0.671875 9.101562 -0.625 9.25 -0.59375 C 9.394531 -0.570312 9.566406 -0.5625 9.765625 -0.5625 L 9.765625 0 L 5.5625 0 Z M 5.5625 -0.5625 "/></g></g></g><g fill="#235959" fill-opacity="1"><g transform="translate(205.616546, 39.274044)"><g><path d="M 1.375 0 L 1.015625 0 L 1.015625 -2.75 L 1.421875 -2.75 C 1.835938 -1.25 2.59375 -0.5 3.6875 -0.5 C 4.113281 -0.5 4.453125 -0.601562 4.703125 -0.8125 C 4.953125 -1.019531 5.078125 -1.335938 5.078125 -1.765625 C 5.078125 -1.921875 5.050781 -2.050781 5 -2.15625 C 4.957031 -2.269531 4.867188 -2.390625 4.734375 -2.515625 C 4.609375 -2.640625 4.421875 -2.78125 4.171875 -2.9375 C 3.929688 -3.101562 3.617188 -3.304688 3.234375 -3.546875 C 2.867188 -3.773438 2.550781 -3.984375 2.28125 -4.171875 C 2.019531 -4.359375 1.796875 -4.550781 1.609375 -4.75 C 1.429688 -4.945312 1.296875 -5.15625 1.203125 -5.375 C 1.117188 -5.601562 1.078125 -5.867188 1.078125 -6.171875 C 1.078125 -6.535156 1.132812 -6.867188 1.25 -7.171875 C 1.375 -7.472656 1.539062 -7.726562 1.75 -7.9375 C 1.96875 -8.15625 2.21875 -8.320312 2.5 -8.4375 C 2.789062 -8.5625 3.109375 -8.625 3.453125 -8.625 C 3.742188 -8.625 4.039062 -8.578125 4.34375 -8.484375 C 4.65625 -8.398438 4.925781 -8.285156 5.15625 -8.140625 L 5.484375 -8.46875 L 5.78125 -8.46875 L 5.78125 -6.171875 L 5.375 -6.171875 C 5.132812 -6.816406 4.875 -7.273438 4.59375 -7.546875 C 4.320312 -7.828125 3.984375 -7.96875 3.578125 -7.96875 C 3.210938 -7.96875 2.921875 -7.875 2.703125 -7.6875 C 2.484375 -7.5 2.375 -7.234375 2.375 -6.890625 C 2.375 -6.710938 2.40625 -6.554688 2.46875 -6.421875 C 2.53125 -6.285156 2.625 -6.148438 2.75 -6.015625 C 2.875 -5.890625 3.035156 -5.757812 3.234375 -5.625 C 3.429688 -5.5 3.671875 -5.347656 3.953125 -5.171875 C 4.410156 -4.890625 4.800781 -4.632812 5.125 -4.40625 C 5.445312 -4.1875 5.707031 -3.96875 5.90625 -3.75 C 6.113281 -3.53125 6.265625 -3.300781 6.359375 -3.0625 C 6.453125 -2.832031 6.5 -2.566406 6.5 -2.265625 C 6.5 -1.515625 6.253906 -0.921875 5.765625 -0.484375 C 5.273438 -0.0546875 4.632812 0.15625 3.84375 0.15625 C 3.007812 0.15625 2.289062 -0.0820312 1.6875 -0.5625 Z M 1.375 0 "/></g></g></g><g fill="#235959" fill-opacity="1"><g transform="translate(73.812168, 53.741322)"><g><path d="M 0.375 0 L 0.375 -0.375 C 0.632812 -0.382812 0.84375 -0.40625 1 -0.4375 C 1.15625 -0.46875 1.273438 -0.523438 1.359375 -0.609375 C 1.441406 -0.691406 1.5 -0.804688 1.53125 -0.953125 C 1.5625 -1.097656 1.578125 -1.285156 1.578125 -1.515625 L 1.578125 -6.171875 C 1.578125 -6.398438 1.5625 -6.585938 1.53125 -6.734375 C 1.507812 -6.878906 1.460938 -6.992188 1.390625 -7.078125 C 1.328125 -7.160156 1.226562 -7.210938 1.09375 -7.234375 C 0.96875 -7.265625 0.796875 -7.289062 0.578125 -7.3125 L 0.578125 -7.6875 L 3.5625 -7.6875 C 4.457031 -7.6875 5.15625 -7.523438 5.65625 -7.203125 C 6.15625 -6.890625 6.40625 -6.441406 6.40625 -5.859375 C 6.40625 -5.421875 6.265625 -5.0625 5.984375 -4.78125 C 5.710938 -4.5 5.28125 -4.269531 4.6875 -4.09375 L 4.6875 -4.046875 C 4.894531 -4.035156 5.070312 -4.015625 5.21875 -3.984375 C 5.375 -3.953125 5.507812 -3.914062 5.625 -3.875 C 5.75 -3.84375 5.863281 -3.800781 5.96875 -3.75 C 6.070312 -3.695312 6.171875 -3.640625 6.265625 -3.578125 C 6.859375 -3.160156 7.15625 -2.632812 7.15625 -2 C 7.15625 -1.644531 7.054688 -1.316406 6.859375 -1.015625 C 6.660156 -0.710938 6.390625 -0.472656 6.046875 -0.296875 C 5.929688 -0.234375 5.8125 -0.179688 5.6875 -0.140625 C 5.570312 -0.109375 5.429688 -0.0820312 5.265625 -0.0625 C 5.109375 -0.0390625 4.925781 -0.0234375 4.71875 -0.015625 C 4.507812 -0.00390625 4.257812 0 3.96875 0 Z M 4 -0.421875 C 5.207031 -0.421875 5.8125 -0.941406 5.8125 -1.984375 C 5.8125 -2.734375 5.5 -3.253906 4.875 -3.546875 C 4.769531 -3.597656 4.664062 -3.640625 4.5625 -3.671875 C 4.46875 -3.703125 4.351562 -3.726562 4.21875 -3.75 C 4.09375 -3.769531 3.9375 -3.78125 3.75 -3.78125 C 3.5625 -3.789062 3.335938 -3.796875 3.078125 -3.796875 L 2.625 -3.796875 L 2.625 -1.5625 C 2.625 -1.15625 2.726562 -0.863281 2.9375 -0.6875 C 3.15625 -0.507812 3.507812 -0.421875 4 -0.421875 Z M 3.1875 -4.296875 C 3.394531 -4.296875 3.566406 -4.296875 3.703125 -4.296875 C 3.835938 -4.304688 3.957031 -4.316406 4.0625 -4.328125 C 4.164062 -4.347656 4.253906 -4.375 4.328125 -4.40625 C 4.398438 -4.4375 4.476562 -4.476562 4.5625 -4.53125 C 4.769531 -4.664062 4.921875 -4.828125 5.015625 -5.015625 C 5.109375 -5.203125 5.15625 -5.441406 5.15625 -5.734375 C 5.15625 -6.265625 5.023438 -6.644531 4.765625 -6.875 C 4.515625 -7.101562 4.113281 -7.21875 3.5625 -7.21875 L 2.796875 -7.21875 C 2.679688 -7.21875 2.625 -7.160156 2.625 -7.046875 L 2.625 -4.296875 Z M 3.1875 -4.296875 "/></g></g></g><g fill="#235959" fill-opacity="1"><g transform="translate(85.97267, 53.741322)"><g><path d="M 4.71875 -7.78125 C 5.300781 -7.78125 5.847656 -7.675781 6.359375 -7.46875 C 6.867188 -7.269531 7.304688 -6.988281 7.671875 -6.625 C 8.046875 -6.269531 8.335938 -5.847656 8.546875 -5.359375 C 8.765625 -4.867188 8.875 -4.34375 8.875 -3.78125 C 8.875 -3.238281 8.765625 -2.734375 8.546875 -2.265625 C 8.335938 -1.796875 8.046875 -1.382812 7.671875 -1.03125 C 7.296875 -0.6875 6.851562 -0.410156 6.34375 -0.203125 C 5.84375 -0.00390625 5.300781 0.09375 4.71875 0.09375 C 4.144531 0.09375 3.601562 -0.00390625 3.09375 -0.203125 C 2.59375 -0.410156 2.15625 -0.6875 1.78125 -1.03125 C 1.40625 -1.382812 1.109375 -1.796875 0.890625 -2.265625 C 0.671875 -2.734375 0.5625 -3.238281 0.5625 -3.78125 C 0.5625 -4.34375 0.664062 -4.867188 0.875 -5.359375 C 1.09375 -5.847656 1.390625 -6.269531 1.765625 -6.625 C 2.140625 -6.988281 2.578125 -7.269531 3.078125 -7.46875 C 3.585938 -7.675781 4.132812 -7.78125 4.71875 -7.78125 Z M 4.71875 -0.453125 C 5.15625 -0.453125 5.550781 -0.523438 5.90625 -0.671875 C 6.257812 -0.828125 6.554688 -1.046875 6.796875 -1.328125 C 7.046875 -1.617188 7.238281 -1.96875 7.375 -2.375 C 7.507812 -2.789062 7.578125 -3.25 7.578125 -3.75 C 7.578125 -4.28125 7.507812 -4.757812 7.375 -5.1875 C 7.238281 -5.625 7.046875 -5.992188 6.796875 -6.296875 C 6.554688 -6.597656 6.257812 -6.828125 5.90625 -6.984375 C 5.550781 -7.148438 5.15625 -7.234375 4.71875 -7.234375 C 4.28125 -7.234375 3.882812 -7.148438 3.53125 -6.984375 C 3.175781 -6.828125 2.875 -6.597656 2.625 -6.296875 C 2.382812 -5.992188 2.195312 -5.625 2.0625 -5.1875 C 1.925781 -4.757812 1.859375 -4.28125 1.859375 -3.75 C 1.859375 -3.25 1.925781 -2.789062 2.0625 -2.375 C 2.195312 -1.96875 2.382812 -1.617188 2.625 -1.328125 C 2.875 -1.046875 3.175781 -0.828125 3.53125 -0.671875 C 3.882812 -0.523438 4.28125 -0.453125 4.71875 -0.453125 Z M 4.71875 -0.453125 "/></g></g></g><g fill="#235959" fill-opacity="1"><g transform="translate(99.921501, 53.741322)"><g><path d="M 4.71875 -7.78125 C 5.300781 -7.78125 5.847656 -7.675781 6.359375 -7.46875 C 6.867188 -7.269531 7.304688 -6.988281 7.671875 -6.625 C 8.046875 -6.269531 8.335938 -5.847656 8.546875 -5.359375 C 8.765625 -4.867188 8.875 -4.34375 8.875 -3.78125 C 8.875 -3.238281 8.765625 -2.734375 8.546875 -2.265625 C 8.335938 -1.796875 8.046875 -1.382812 7.671875 -1.03125 C 7.296875 -0.6875 6.851562 -0.410156 6.34375 -0.203125 C 5.84375 -0.00390625 5.300781 0.09375 4.71875 0.09375 C 4.144531 0.09375 3.601562 -0.00390625 3.09375 -0.203125 C 2.59375 -0.410156 2.15625 -0.6875 1.78125 -1.03125 C 1.40625 -1.382812 1.109375 -1.796875 0.890625 -2.265625 C 0.671875 -2.734375 0.5625 -3.238281 0.5625 -3.78125 C 0.5625 -4.34375 0.664062 -4.867188 0.875 -5.359375 C 1.09375 -5.847656 1.390625 -6.269531 1.765625 -6.625 C 2.140625 -6.988281 2.578125 -7.269531 3.078125 -7.46875 C 3.585938 -7.675781 4.132812 -7.78125 4.71875 -7.78125 Z M 4.71875 -0.453125 C 5.15625 -0.453125 5.550781 -0.523438 5.90625 -0.671875 C 6.257812 -0.828125 6.554688 -1.046875 6.796875 -1.328125 C 7.046875 -1.617188 7.238281 -1.96875 7.375 -2.375 C 7.507812 -2.789062 7.578125 -3.25 7.578125 -3.75 C 7.578125 -4.28125 7.507812 -4.757812 7.375 -5.1875 C 7.238281 -5.625 7.046875 -5.992188 6.796875 -6.296875 C 6.554688 -6.597656 6.257812 -6.828125 5.90625 -6.984375 C 5.550781 -7.148438 5.15625 -7.234375 4.71875 -7.234375 C 4.28125 -7.234375 3.882812 -7.148438 3.53125 -6.984375 C 3.175781 -6.828125 2.875 -6.597656 2.625 -6.296875 C 2.382812 -5.992188 2.195312 -5.625 2.0625 -5.1875 C 1.925781 -4.757812 1.859375 -4.28125 1.859375 -3.75 C 1.859375 -3.25 1.925781 -2.789062 2.0625 -2.375 C 2.195312 -1.96875 2.382812 -1.617188 2.625 -1.328125 C 2.875 -1.046875 3.175781 -0.828125 3.53125 -0.671875 C 3.882812 -0.523438 4.28125 -0.453125 4.71875 -0.453125 Z M 4.71875 -0.453125 "/></g></g></g><g fill="#235959" fill-opacity="1"><g transform="translate(113.740432, 53.741322)"><g><path d="M 2.59375 -1.59375 C 2.59375 -1.332031 2.601562 -1.125 2.625 -0.96875 C 2.65625 -0.8125 2.710938 -0.6875 2.796875 -0.59375 C 2.878906 -0.507812 2.988281 -0.453125 3.125 -0.421875 C 3.257812 -0.390625 3.445312 -0.375 3.6875 -0.375 L 3.6875 0 L 0.453125 0 L 0.453125 -0.375 C 0.679688 -0.375 0.867188 -0.390625 1.015625 -0.421875 C 1.160156 -0.453125 1.269531 -0.507812 1.34375 -0.59375 C 1.425781 -0.675781 1.476562 -0.789062 1.5 -0.9375 C 1.53125 -1.09375 1.546875 -1.285156 1.546875 -1.515625 L 1.546875 -6.171875 C 1.546875 -6.421875 1.53125 -6.617188 1.5 -6.765625 C 1.46875 -6.921875 1.414062 -7.035156 1.34375 -7.109375 C 1.269531 -7.191406 1.164062 -7.242188 1.03125 -7.265625 C 0.90625 -7.296875 0.742188 -7.3125 0.546875 -7.3125 L 0.546875 -7.6875 L 3.578125 -7.6875 L 3.578125 -7.3125 C 3.378906 -7.3125 3.21875 -7.296875 3.09375 -7.265625 C 2.96875 -7.242188 2.863281 -7.1875 2.78125 -7.09375 C 2.707031 -7.007812 2.65625 -6.890625 2.625 -6.734375 C 2.601562 -6.578125 2.59375 -6.363281 2.59375 -6.09375 L 2.59375 -3.640625 L 5.09375 -6.640625 C 5.226562 -6.804688 5.296875 -6.9375 5.296875 -7.03125 C 5.296875 -7.21875 5.101562 -7.3125 4.71875 -7.3125 L 4.71875 -7.6875 L 7.125 -7.6875 L 7.125 -7.3125 C 6.988281 -7.3125 6.867188 -7.300781 6.765625 -7.28125 C 6.671875 -7.269531 6.578125 -7.238281 6.484375 -7.1875 C 6.390625 -7.132812 6.285156 -7.054688 6.171875 -6.953125 C 6.066406 -6.859375 5.945312 -6.726562 5.8125 -6.5625 L 3.9375 -4.40625 L 6.84375 -0.90625 C 7.007812 -0.707031 7.164062 -0.566406 7.3125 -0.484375 C 7.457031 -0.410156 7.65625 -0.375 7.90625 -0.375 L 7.90625 0 L 4.84375 0 L 4.84375 -0.375 C 5.101562 -0.375 5.289062 -0.394531 5.40625 -0.4375 C 5.519531 -0.488281 5.578125 -0.5625 5.578125 -0.65625 C 5.578125 -0.707031 5.546875 -0.78125 5.484375 -0.875 C 5.429688 -0.976562 5.347656 -1.101562 5.234375 -1.25 L 3.28125 -3.640625 L 2.59375 -2.84375 Z M 2.59375 -1.59375 "/></g></g></g><g fill="#235959" fill-opacity="1"><g transform="translate(126.020815, 53.741322)"><g><path d="M 2.59375 -1.59375 C 2.59375 -1.332031 2.601562 -1.125 2.625 -0.96875 C 2.65625 -0.8125 2.710938 -0.6875 2.796875 -0.59375 C 2.878906 -0.507812 2.988281 -0.453125 3.125 -0.421875 C 3.257812 -0.390625 3.445312 -0.375 3.6875 -0.375 L 3.6875 0 L 0.453125 0 L 0.453125 -0.375 C 0.679688 -0.375 0.867188 -0.390625 1.015625 -0.421875 C 1.160156 -0.453125 1.269531 -0.507812 1.34375 -0.59375 C 1.425781 -0.675781 1.476562 -0.789062 1.5 -0.9375 C 1.53125 -1.09375 1.546875 -1.285156 1.546875 -1.515625 L 1.546875 -6.171875 C 1.546875 -6.421875 1.53125 -6.617188 1.5 -6.765625 C 1.46875 -6.921875 1.414062 -7.035156 1.34375 -7.109375 C 1.269531 -7.191406 1.164062 -7.242188 1.03125 -7.265625 C 0.90625 -7.296875 0.742188 -7.3125 0.546875 -7.3125 L 0.546875 -7.6875 L 3.578125 -7.6875 L 3.578125 -7.3125 C 3.378906 -7.3125 3.21875 -7.296875 3.09375 -7.265625 C 2.96875 -7.242188 2.863281 -7.1875 2.78125 -7.09375 C 2.707031 -7.007812 2.65625 -6.890625 2.625 -6.734375 C 2.601562 -6.578125 2.59375 -6.363281 2.59375 -6.09375 L 2.59375 -3.640625 L 5.09375 -6.640625 C 5.226562 -6.804688 5.296875 -6.9375 5.296875 -7.03125 C 5.296875 -7.21875 5.101562 -7.3125 4.71875 -7.3125 L 4.71875 -7.6875 L 7.125 -7.6875 L 7.125 -7.3125 C 6.988281 -7.3125 6.867188 -7.300781 6.765625 -7.28125 C 6.671875 -7.269531 6.578125 -7.238281 6.484375 -7.1875 C 6.390625 -7.132812 6.285156 -7.054688 6.171875 -6.953125 C 6.066406 -6.859375 5.945312 -6.726562 5.8125 -6.5625 L 3.9375 -4.40625 L 6.84375 -0.90625 C 7.007812 -0.707031 7.164062 -0.566406 7.3125 -0.484375 C 7.457031 -0.410156 7.65625 -0.375 7.90625 -0.375 L 7.90625 0 L 4.84375 0 L 4.84375 -0.375 C 5.101562 -0.375 5.289062 -0.394531 5.40625 -0.4375 C 5.519531 -0.488281 5.578125 -0.5625 5.578125 -0.65625 C 5.578125 -0.707031 5.546875 -0.78125 5.484375 -0.875 C 5.429688 -0.976562 5.347656 -1.101562 5.234375 -1.25 L 3.28125 -3.640625 L 2.59375 -2.84375 Z M 2.59375 -1.59375 "/></g></g></g><g fill="#235959" fill-opacity="1"><g transform="translate(138.301199, 53.741322)"><g><path d="M 2.59375 -4.21875 C 2.957031 -4.21875 3.257812 -4.238281 3.5 -4.28125 C 3.738281 -4.332031 3.929688 -4.398438 4.078125 -4.484375 C 4.222656 -4.578125 4.328125 -4.695312 4.390625 -4.84375 C 4.453125 -5 4.484375 -5.175781 4.484375 -5.375 L 4.828125 -5.375 L 4.828125 -2.640625 L 4.484375 -2.640625 C 4.484375 -2.847656 4.453125 -3.023438 4.390625 -3.171875 C 4.335938 -3.316406 4.238281 -3.4375 4.09375 -3.53125 C 3.957031 -3.625 3.765625 -3.695312 3.515625 -3.75 C 3.273438 -3.800781 2.96875 -3.828125 2.59375 -3.828125 L 2.59375 -1.5625 C 2.59375 -1.34375 2.617188 -1.160156 2.671875 -1.015625 C 2.722656 -0.878906 2.8125 -0.765625 2.9375 -0.671875 C 3.070312 -0.585938 3.242188 -0.523438 3.453125 -0.484375 C 3.671875 -0.441406 3.9375 -0.421875 4.25 -0.421875 C 4.601562 -0.421875 4.898438 -0.445312 5.140625 -0.5 C 5.390625 -0.550781 5.597656 -0.632812 5.765625 -0.75 C 5.929688 -0.875 6.0625 -1.035156 6.15625 -1.234375 C 6.257812 -1.429688 6.347656 -1.675781 6.421875 -1.96875 L 6.796875 -1.96875 L 6.65625 0 L 0.453125 0 L 0.453125 -0.375 C 0.679688 -0.382812 0.867188 -0.40625 1.015625 -0.4375 C 1.160156 -0.46875 1.269531 -0.523438 1.34375 -0.609375 C 1.425781 -0.691406 1.476562 -0.804688 1.5 -0.953125 C 1.53125 -1.097656 1.546875 -1.285156 1.546875 -1.515625 L 1.546875 -6.171875 C 1.546875 -6.398438 1.535156 -6.585938 1.515625 -6.734375 C 1.492188 -6.878906 1.445312 -6.992188 1.375 -7.078125 C 1.300781 -7.160156 1.195312 -7.210938 1.0625 -7.234375 C 0.9375 -7.265625 0.765625 -7.289062 0.546875 -7.3125 L 0.546875 -7.6875 L 6.3125 -7.6875 L 6.40625 -5.9375 L 6.0625 -5.9375 C 6.019531 -6.195312 5.953125 -6.410156 5.859375 -6.578125 C 5.773438 -6.753906 5.65625 -6.890625 5.5 -6.984375 C 5.34375 -7.085938 5.144531 -7.160156 4.90625 -7.203125 C 4.664062 -7.242188 4.375 -7.265625 4.03125 -7.265625 L 2.765625 -7.265625 C 2.648438 -7.265625 2.59375 -7.207031 2.59375 -7.09375 Z M 2.59375 -4.21875 "/></g></g></g><g fill="#235959" fill-opacity="1"><g transform="translate(150.052072, 53.741322)"><g><path d="M 2.59375 -4.21875 C 2.957031 -4.21875 3.257812 -4.238281 3.5 -4.28125 C 3.738281 -4.332031 3.929688 -4.398438 4.078125 -4.484375 C 4.222656 -4.578125 4.328125 -4.695312 4.390625 -4.84375 C 4.453125 -5 4.484375 -5.175781 4.484375 -5.375 L 4.828125 -5.375 L 4.828125 -2.640625 L 4.484375 -2.640625 C 4.484375 -2.847656 4.453125 -3.023438 4.390625 -3.171875 C 4.335938 -3.316406 4.238281 -3.4375 4.09375 -3.53125 C 3.957031 -3.625 3.765625 -3.695312 3.515625 -3.75 C 3.273438 -3.800781 2.96875 -3.828125 2.59375 -3.828125 L 2.59375 -1.5625 C 2.59375 -1.34375 2.617188 -1.160156 2.671875 -1.015625 C 2.722656 -0.878906 2.8125 -0.765625 2.9375 -0.671875 C 3.070312 -0.585938 3.242188 -0.523438 3.453125 -0.484375 C 3.671875 -0.441406 3.9375 -0.421875 4.25 -0.421875 C 4.601562 -0.421875 4.898438 -0.445312 5.140625 -0.5 C 5.390625 -0.550781 5.597656 -0.632812 5.765625 -0.75 C 5.929688 -0.875 6.0625 -1.035156 6.15625 -1.234375 C 6.257812 -1.429688 6.347656 -1.675781 6.421875 -1.96875 L 6.796875 -1.96875 L 6.65625 0 L 0.453125 0 L 0.453125 -0.375 C 0.679688 -0.382812 0.867188 -0.40625 1.015625 -0.4375 C 1.160156 -0.46875 1.269531 -0.523438 1.34375 -0.609375 C 1.425781 -0.691406 1.476562 -0.804688 1.5 -0.953125 C 1.53125 -1.097656 1.546875 -1.285156 1.546875 -1.515625 L 1.546875 -6.171875 C 1.546875 -6.398438 1.535156 -6.585938 1.515625 -6.734375 C 1.492188 -6.878906 1.445312 -6.992188 1.375 -7.078125 C 1.300781 -7.160156 1.195312 -7.210938 1.0625 -7.234375 C 0.9375 -7.265625 0.765625 -7.289062 0.546875 -7.3125 L 0.546875 -7.6875 L 6.3125 -7.6875 L 6.40625 -5.9375 L 6.0625 -5.9375 C 6.019531 -6.195312 5.953125 -6.410156 5.859375 -6.578125 C 5.773438 -6.753906 5.65625 -6.890625 5.5 -6.984375 C 5.34375 -7.085938 5.144531 -7.160156 4.90625 -7.203125 C 4.664062 -7.242188 4.375 -7.265625 4.03125 -7.265625 L 2.765625 -7.265625 C 2.648438 -7.265625 2.59375 -7.207031 2.59375 -7.09375 Z M 2.59375 -4.21875 "/></g></g></g><g fill="#235959" fill-opacity="1"><g transform="translate(161.802946, 53.741322)"><g><path d="M 6.5625 -5.765625 C 6.5625 -5.410156 6.503906 -5.09375 6.390625 -4.8125 C 6.285156 -4.53125 6.109375 -4.289062 5.859375 -4.09375 C 5.617188 -3.90625 5.300781 -3.757812 4.90625 -3.65625 C 4.519531 -3.550781 4.050781 -3.5 3.5 -3.5 L 2.59375 -3.5 L 2.59375 -1.5625 C 2.59375 -1.320312 2.609375 -1.125 2.640625 -0.96875 C 2.671875 -0.8125 2.734375 -0.6875 2.828125 -0.59375 C 2.921875 -0.507812 3.0625 -0.453125 3.25 -0.421875 C 3.4375 -0.390625 3.675781 -0.375 3.96875 -0.375 L 3.96875 0 L 0.453125 0 L 0.453125 -0.375 C 0.679688 -0.382812 0.867188 -0.40625 1.015625 -0.4375 C 1.160156 -0.46875 1.269531 -0.523438 1.34375 -0.609375 C 1.425781 -0.691406 1.476562 -0.804688 1.5 -0.953125 C 1.53125 -1.097656 1.546875 -1.285156 1.546875 -1.515625 L 1.546875 -6.171875 C 1.546875 -6.398438 1.535156 -6.585938 1.515625 -6.734375 C 1.492188 -6.878906 1.445312 -6.992188 1.375 -7.078125 C 1.300781 -7.160156 1.195312 -7.210938 1.0625 -7.234375 C 0.9375 -7.265625 0.765625 -7.289062 0.546875 -7.3125 L 0.546875 -7.6875 L 3.6875 -7.6875 C 4.601562 -7.6875 5.3125 -7.515625 5.8125 -7.171875 C 6.3125 -6.835938 6.5625 -6.367188 6.5625 -5.765625 Z M 2.59375 -4 L 3.3125 -4 C 3.96875 -4 4.457031 -4.125 4.78125 -4.375 C 5.101562 -4.632812 5.265625 -5.054688 5.265625 -5.640625 C 5.265625 -6.203125 5.132812 -6.601562 4.875 -6.84375 C 4.625 -7.09375 4.226562 -7.21875 3.6875 -7.21875 L 2.765625 -7.21875 C 2.648438 -7.21875 2.59375 -7.160156 2.59375 -7.046875 Z M 2.59375 -4 "/></g></g></g><g fill="#235959" fill-opacity="1"><g transform="translate(173.164184, 53.741322)"><g><path d="M 2.59375 -1.890625 C 2.59375 -1.554688 2.601562 -1.289062 2.625 -1.09375 C 2.65625 -0.90625 2.707031 -0.753906 2.78125 -0.640625 C 2.863281 -0.535156 2.972656 -0.46875 3.109375 -0.4375 C 3.253906 -0.40625 3.445312 -0.382812 3.6875 -0.375 L 3.6875 0 L 0.453125 0 L 0.453125 -0.375 C 0.679688 -0.382812 0.867188 -0.40625 1.015625 -0.4375 C 1.160156 -0.476562 1.269531 -0.546875 1.34375 -0.640625 C 1.425781 -0.742188 1.476562 -0.882812 1.5 -1.0625 C 1.53125 -1.25 1.546875 -1.5 1.546875 -1.8125 L 1.546875 -5.875 C 1.546875 -6.15625 1.535156 -6.382812 1.515625 -6.5625 C 1.492188 -6.75 1.445312 -6.894531 1.375 -7 C 1.300781 -7.101562 1.195312 -7.175781 1.0625 -7.21875 C 0.9375 -7.257812 0.765625 -7.289062 0.546875 -7.3125 L 0.546875 -7.6875 L 3.578125 -7.6875 L 3.578125 -7.3125 C 3.367188 -7.300781 3.195312 -7.269531 3.0625 -7.21875 C 2.9375 -7.175781 2.835938 -7.097656 2.765625 -6.984375 C 2.703125 -6.878906 2.65625 -6.726562 2.625 -6.53125 C 2.601562 -6.34375 2.59375 -6.097656 2.59375 -5.796875 Z M 2.59375 -1.890625 "/></g></g></g><g fill="#235959" fill-opacity="1"><g transform="translate(181.807951, 53.741322)"><g><path d="M 6.921875 0.09375 L 2.1875 -6.15625 L 2.140625 -6.15625 L 2.140625 -1.890625 C 2.140625 -1.554688 2.148438 -1.289062 2.171875 -1.09375 C 2.203125 -0.90625 2.25 -0.753906 2.3125 -0.640625 C 2.382812 -0.535156 2.484375 -0.46875 2.609375 -0.4375 C 2.742188 -0.40625 2.921875 -0.382812 3.140625 -0.375 L 3.140625 0 L 0.453125 0 L 0.453125 -0.375 C 0.679688 -0.382812 0.867188 -0.40625 1.015625 -0.4375 C 1.160156 -0.476562 1.269531 -0.546875 1.34375 -0.640625 C 1.425781 -0.742188 1.476562 -0.882812 1.5 -1.0625 C 1.53125 -1.25 1.546875 -1.5 1.546875 -1.8125 L 1.546875 -5.875 C 1.546875 -6.15625 1.535156 -6.382812 1.515625 -6.5625 C 1.492188 -6.75 1.445312 -6.894531 1.375 -7 C 1.300781 -7.101562 1.195312 -7.175781 1.0625 -7.21875 C 0.9375 -7.257812 0.765625 -7.289062 0.546875 -7.3125 L 0.546875 -7.6875 L 2.53125 -7.6875 L 6.890625 -1.859375 L 6.921875 -1.859375 L 6.921875 -5.796875 C 6.921875 -6.128906 6.910156 -6.390625 6.890625 -6.578125 C 6.867188 -6.773438 6.820312 -6.925781 6.75 -7.03125 C 6.6875 -7.144531 6.585938 -7.21875 6.453125 -7.25 C 6.328125 -7.28125 6.15625 -7.300781 5.9375 -7.3125 L 5.9375 -7.6875 L 8.625 -7.6875 L 8.625 -7.3125 C 8.394531 -7.300781 8.207031 -7.273438 8.0625 -7.234375 C 7.914062 -7.203125 7.800781 -7.132812 7.71875 -7.03125 C 7.644531 -6.9375 7.59375 -6.796875 7.5625 -6.609375 C 7.539062 -6.421875 7.53125 -6.175781 7.53125 -5.875 L 7.53125 0.09375 Z M 6.921875 0.09375 "/></g></g></g><g fill="#235959" fill-opacity="1"><g transform="translate(195.207279, 53.741322)"><g><path d="M 4.265625 0.09375 C 3.703125 0.09375 3.191406 0.00390625 2.734375 -0.171875 C 2.285156 -0.347656 1.898438 -0.597656 1.578125 -0.921875 C 1.265625 -1.253906 1.019531 -1.65625 0.84375 -2.125 C 0.675781 -2.601562 0.59375 -3.132812 0.59375 -3.71875 C 0.59375 -4.320312 0.6875 -4.875 0.875 -5.375 C 1.0625 -5.875 1.320312 -6.300781 1.65625 -6.65625 C 2 -7.019531 2.40625 -7.296875 2.875 -7.484375 C 3.34375 -7.679688 3.859375 -7.78125 4.421875 -7.78125 C 4.816406 -7.78125 5.191406 -7.722656 5.546875 -7.609375 C 5.898438 -7.503906 6.285156 -7.320312 6.703125 -7.0625 L 6.90625 -7.6875 L 7.265625 -7.6875 L 7.125 -5.390625 L 6.65625 -5.390625 C 6.65625 -5.710938 6.59375 -5.992188 6.46875 -6.234375 C 6.34375 -6.472656 6.179688 -6.664062 5.984375 -6.8125 C 5.785156 -6.96875 5.554688 -7.082031 5.296875 -7.15625 C 5.035156 -7.226562 4.773438 -7.265625 4.515625 -7.265625 C 4.109375 -7.265625 3.742188 -7.1875 3.421875 -7.03125 C 3.109375 -6.875 2.835938 -6.644531 2.609375 -6.34375 C 2.390625 -6.039062 2.222656 -5.671875 2.109375 -5.234375 C 1.992188 -4.804688 1.9375 -4.320312 1.9375 -3.78125 C 1.9375 -2.707031 2.160156 -1.878906 2.609375 -1.296875 C 3.054688 -0.722656 3.703125 -0.4375 4.546875 -0.4375 C 4.859375 -0.4375 5.140625 -0.472656 5.390625 -0.546875 C 5.648438 -0.628906 5.867188 -0.734375 6.046875 -0.859375 C 6.222656 -0.992188 6.351562 -1.144531 6.4375 -1.3125 C 6.53125 -1.476562 6.578125 -1.65625 6.578125 -1.84375 C 6.578125 -2.226562 6.5 -2.488281 6.34375 -2.625 C 6.1875 -2.757812 5.929688 -2.828125 5.578125 -2.828125 L 5.578125 -3.21875 L 8.421875 -3.21875 L 8.421875 -2.828125 C 8.253906 -2.828125 8.117188 -2.8125 8.015625 -2.78125 C 7.910156 -2.757812 7.828125 -2.710938 7.765625 -2.640625 C 7.703125 -2.578125 7.65625 -2.488281 7.625 -2.375 C 7.601562 -2.257812 7.59375 -2.117188 7.59375 -1.953125 L 7.59375 -0.828125 C 7.46875 -0.828125 7.351562 -0.820312 7.25 -0.8125 C 7.144531 -0.800781 7.035156 -0.773438 6.921875 -0.734375 C 6.816406 -0.703125 6.691406 -0.65625 6.546875 -0.59375 C 6.410156 -0.53125 6.253906 -0.445312 6.078125 -0.34375 C 5.835938 -0.207031 5.566406 -0.0976562 5.265625 -0.015625 C 4.960938 0.0546875 4.628906 0.09375 4.265625 0.09375 Z M 4.265625 0.09375 "/></g></g></g></svg>